<?xml version="1.0" standalone="no"?>
<!DOCTYPE svg PUBLIC "-//W3C//DTD SVG 20010904//EN"
 "http://www.w3.org/TR/2001/REC-SVG-20010904/DTD/svg10.dtd">
<svg version="1.0" xmlns="http://www.w3.org/2000/svg"
 width="1444.000000pt" height="1444.000000pt" viewBox="0 0 1444.000000 1444.000000"
 preserveAspectRatio="xMidYMid meet">
<metadata>
Created by potrace 1.14, written by Peter Selinger 2001-2017
</metadata>
<g transform="translate(0.000000,1444.000000) scale(0.100000,-0.100000)"
fill="#000000" stroke="none">
<path d="M4819 12142 c-1 -4 -1 -10 0 -14 0 -4 -5 -5 -13 -2 -10 4 -13 -9 -13
-55 0 -38 4 -58 10 -54 6 4 8 0 4 -9 -3 -9 2 -23 13 -33 11 -10 17 -22 13 -28
-3 -5 -2 -8 3 -5 9 6 34 -15 35 -29 1 -5 8 -24 16 -43 8 -19 16 -42 18 -50 2
-8 4 -16 5 -17 2 -2 3 -6 4 -10 1 -5 5 -13 9 -20 4 -6 8 -23 9 -37 1 -14 6
-26 10 -26 3 0 6 -29 6 -65 -1 -39 4 -70 12 -80 9 -11 9 -15 1 -15 -7 0 -9 -5
-5 -11 3 -6 8 -41 11 -78 2 -36 8 -90 12 -119 11 -70 3 -477 -9 -477 -1 0 -3
-12 -4 -26 0 -14 -7 -33 -14 -42 -9 -10 -10 -17 -2 -22 6 -3 8 -11 4 -16 -3
-5 -11 -6 -17 -2 -7 4 -6 0 2 -10 10 -13 10 -17 1 -17 -7 0 -10 -8 -7 -19 3
-13 0 -18 -8 -15 -9 4 -12 -4 -10 -26 1 -16 -2 -33 -8 -37 -6 -3 -7 -1 -3 5
11 18 0 14 -15 -5 -10 -11 -10 -14 -1 -9 7 4 12 1 12 -9 0 -10 -5 -13 -12 -9
-8 5 -9 2 -5 -9 4 -10 1 -17 -5 -17 -6 0 -8 -3 -5 -7 4 -3 0 -17 -9 -31 -9
-13 -11 -21 -4 -17 9 5 8 1 -1 -16 -7 -13 -12 -28 -11 -33 2 -5 -4 -6 -12 -3
-10 4 -14 0 -11 -14 2 -10 0 -19 -6 -19 -5 0 -9 -7 -9 -16 0 -8 -4 -12 -10 -9
-6 4 -7 -1 -3 -11 4 -11 2 -15 -4 -11 -6 4 -8 -3 -5 -18 2 -15 0 -25 -7 -25
-7 0 -10 -4 -7 -9 3 -5 -1 -12 -9 -15 -12 -4 -14 -10 -5 -25 7 -14 7 -22 -2
-27 -7 -4 -8 -3 -4 4 4 7 3 12 -2 12 -5 0 -12 -9 -15 -20 -3 -13 -1 -18 6 -13
8 4 8 2 0 -9 -7 -8 -10 -18 -6 -22 4 -4 -1 -4 -10 0 -10 3 -17 3 -16 -2 4 -23
-2 -35 -13 -28 -8 5 -7 0 2 -11 9 -11 10 -16 3 -11 -8 4 -13 2 -13 -4 0 -6 -5
-8 -12 -4 -10 6 -10 4 0 -8 10 -13 10 -18 1 -24 -8 -5 -9 -3 -4 6 5 9 4 11 -4
6 -7 -4 -10 -13 -8 -19 2 -6 -6 -20 -17 -30 -12 -10 -15 -15 -8 -12 11 6 12 3
3 -14 -7 -11 -14 -21 -17 -21 -3 0 -2 4 1 10 3 6 -1 7 -10 4 -14 -6 -14 -8 2
-20 17 -13 17 -13 -1 -14 -10 0 -16 -5 -13 -13 5 -15 -18 -39 -29 -29 -4 4 -4
1 0 -5 8 -14 -22 -85 -33 -79 -3 2 -7 -7 -8 -21 0 -14 -7 -30 -15 -34 -11 -7
-10 -11 2 -20 12 -8 10 -9 -7 -4 -18 5 -21 2 -18 -14 2 -11 -3 -22 -13 -26
-14 -5 -14 -7 -2 -15 13 -9 13 -10 0 -11 -8 -1 -19 -1 -24 0 -5 1 -4 -4 2 -11
7 -9 8 -19 2 -28 -9 -13 -10 -13 -10 0 0 13 -1 13 -10 0 -6 -9 -5 -17 3 -22 8
-5 6 -9 -6 -14 -9 -3 -15 -10 -12 -14 8 -13 -6 -41 -17 -34 -6 4 -5 -2 1 -14
9 -17 8 -23 -6 -31 -11 -6 -13 -11 -5 -11 7 0 10 -5 7 -10 -4 -6 -12 -7 -18
-3 -7 4 -5 -2 3 -12 9 -11 10 -16 3 -11 -13 7 -17 -4 -14 -33 2 -7 -2 -10 -7
-7 -5 3 -8 -8 -7 -24 1 -17 -2 -30 -8 -30 -5 0 -7 -7 -3 -15 3 -8 0 -15 -7
-15 -8 0 -6 -4 3 -10 10 -7 11 -10 2 -10 -8 0 -11 -9 -8 -26 4 -19 1 -24 -9
-20 -9 3 -12 -1 -10 -16 3 -11 0 -30 -6 -40 -9 -16 -8 -19 3 -12 10 6 11 5 1
-7 -7 -8 -14 -31 -16 -50 -2 -19 -6 -40 -10 -46 -4 -6 -7 -22 -7 -34 1 -13 -1
-46 -4 -74 -15 -164 -25 -543 -16 -610 2 -16 9 -36 15 -44 8 -12 7 -13 -5 -6
-12 7 -13 6 -4 -6 6 -8 10 -24 9 -36 -1 -13 3 -23 8 -23 5 0 7 -7 3 -15 -3 -8
-2 -15 3 -15 4 0 7 -10 6 -22 -1 -13 2 -29 8 -35 6 -9 5 -13 -3 -13 -9 0 -7
-7 6 -22 12 -13 13 -18 4 -13 -13 8 -13 7 -1 -8 11 -14 11 -17 0 -17 -8 0 -6
-6 7 -16 10 -8 12 -12 4 -8 -12 5 -12 4 -3 -6 6 -7 9 -19 6 -28 -5 -11 -3 -13
6 -7 10 5 11 2 6 -14 -4 -12 -2 -21 4 -21 6 0 8 -6 5 -14 -3 -8 -1 -17 5 -21
6 -3 11 -19 11 -36 0 -21 5 -29 18 -29 12 0 13 -3 5 -8 -10 -6 -9 -14 2 -36 8
-15 13 -32 10 -36 -3 -4 2 -11 11 -14 13 -5 14 -9 4 -21 -10 -12 -10 -15 0
-15 8 0 10 -3 7 -7 -4 -3 -1 -13 6 -21 10 -13 9 -15 -3 -8 -9 4 -8 1 3 -7 9
-8 17 -24 17 -36 0 -13 8 -30 18 -39 10 -10 12 -13 5 -8 -18 11 -16 1 2 -17 8
-8 16 -21 17 -28 2 -8 10 -20 18 -27 13 -12 13 -13 0 -7 -8 4 -6 -1 4 -9 15
-12 16 -16 5 -16 -8 -1 -3 -7 11 -15 14 -8 19 -14 11 -15 -8 0 -4 -8 10 -21
13 -11 18 -18 12 -14 -17 8 -16 -3 1 -20 7 -8 17 -11 21 -7 4 4 3 -3 -4 -15
-10 -19 -9 -21 7 -18 11 2 19 -3 19 -10 0 -8 -3 -12 -7 -10 -4 2 -7 -2 -7 -10
0 -8 4 -12 8 -10 4 3 14 -13 23 -35 9 -22 20 -40 26 -40 5 0 9 -3 9 -7 -5 -24
16 -73 32 -78 11 -4 19 -11 19 -16 0 -6 -4 -8 -9 -5 -11 7 -8 -21 4 -31 4 -4
5 -2 1 5 -12 21 9 13 22 -9 11 -17 11 -20 0 -14 -7 3 -5 0 5 -8 9 -8 17 -19
17 -26 0 -11 14 -15 35 -11 6 1 4 -4 -2 -11 -19 -19 -16 -28 8 -24 18 4 19 2
8 -11 -7 -8 -8 -14 -3 -13 19 3 34 -1 34 -12 0 -14 26 -40 33 -32 4 3 4 -4 2
-17 -3 -17 -1 -19 9 -11 17 14 35 -6 38 -42 1 -14 5 -25 8 -25 3 0 14 0 25 -1
17 -1 18 -3 5 -11 -12 -8 -12 -10 5 -10 17 0 17 -2 5 -10 -13 -8 -13 -10 2
-10 9 0 20 -5 24 -12 4 -7 3 -8 -4 -4 -7 4 -12 2 -12 -3 0 -6 5 -11 11 -11 6
0 8 -7 5 -16 -6 -15 -4 -15 11 -3 11 9 14 10 9 2 -4 -7 -3 -13 3 -13 6 0 7 -7
4 -17 -4 -11 -3 -14 5 -9 7 4 12 2 12 -4 0 -6 5 -8 13 -4 7 5 6 0 -3 -11 -12
-15 -12 -17 -1 -10 11 6 13 4 9 -7 -5 -11 0 -14 18 -12 21 2 23 0 13 -12 -10
-12 -10 -15 2 -12 8 2 13 -2 12 -9 -1 -6 4 -14 13 -17 10 -4 13 -1 9 7 -4 6 0
4 8 -5 8 -10 17 -14 21 -10 4 4 7 2 6 -3 -4 -19 2 -50 7 -37 2 6 12 12 21 11
11 0 12 -2 5 -6 -14 -5 -18 -25 -5 -21 15 4 52 -23 52 -39 0 -13 2 -14 17 -2
15 12 16 12 10 -5 -5 -14 -3 -17 8 -13 8 4 17 1 21 -5 4 -7 3 -8 -4 -4 -7 4
-12 2 -12 -5 0 -6 8 -9 19 -6 15 4 19 0 16 -15 -4 -17 -2 -18 12 -6 14 11 16
11 8 -1 -6 -11 -4 -13 10 -7 16 6 16 4 4 -11 -13 -15 -12 -16 9 -11 12 4 20 2
16 -3 -3 -5 2 -12 10 -15 9 -3 13 -11 9 -17 -4 -7 0 -8 12 -3 14 5 15 4 7 -7
-8 -10 -6 -13 9 -14 11 -1 17 2 14 8 -10 15 2 10 16 -8 10 -11 10 -14 2 -9 -9
4 -13 1 -13 -9 0 -11 5 -15 15 -11 9 3 15 0 15 -9 0 -9 6 -12 17 -8 11 4 14 3
9 -5 -4 -7 -1 -12 8 -12 9 0 16 -7 16 -16 0 -8 5 -12 10 -9 6 3 10 1 10 -4 0
-6 7 -11 16 -11 19 0 44 -24 44 -42 0 -10 3 -9 10 2 9 13 10 13 11 0 1 -8 1
-19 0 -23 -1 -5 8 -5 20 -2 15 5 19 4 15 -4 -4 -6 0 -11 8 -11 9 0 16 -5 16
-11 0 -5 5 -7 10 -4 6 3 10 -1 10 -9 0 -8 5 -18 12 -22 6 -4 8 -3 5 3 -3 5 0
10 7 10 7 0 13 -7 12 -16 0 -8 6 -16 15 -16 8 0 27 -12 41 -27 25 -27 46 -38
33 -18 -3 6 -1 10 4 10 6 0 11 -7 11 -16 0 -8 4 -12 10 -9 6 3 10 -1 10 -10 0
-9 4 -13 10 -10 6 3 10 1 10 -4 0 -6 5 -11 11 -11 5 0 7 5 3 12 -4 7 -3 8 4 4
6 -4 9 -12 6 -20 -5 -12 0 -14 45 -18 15 -2 17 -5 9 -15 -8 -11 -7 -12 7 -7
13 6 16 4 10 -6 -5 -8 -3 -11 6 -8 8 3 19 -1 24 -9 6 -8 20 -15 32 -16 16 -1
19 -4 12 -13 -8 -9 -5 -11 10 -7 15 4 21 1 21 -11 0 -9 5 -16 11 -16 5 0 7 6
4 13 -4 6 2 3 12 -9 10 -11 24 -19 31 -16 6 2 12 0 12 -5 0 -5 20 -10 45 -12
28 -1 45 2 45 9 0 6 5 8 10 5 6 -3 10 -3 11 2 5 44 4 63 -3 63 -5 0 -6 5 -3
10 3 6 1 10 -4 10 -6 0 -10 6 -8 13 1 6 -6 11 -16 11 -13 -2 -15 1 -7 11 8 10
8 15 -1 21 -8 4 -9 3 -5 -4 4 -7 4 -12 -1 -12 -4 0 -14 13 -21 30 -8 17 -19
30 -26 30 -7 0 -21 11 -32 24 -10 14 -21 23 -26 20 -4 -3 -5 2 -2 10 4 9 -1
18 -10 22 -9 3 -13 10 -10 15 3 5 2 9 -3 8 -18 -3 -47 3 -35 8 6 2 12 9 12 14
0 4 -7 5 -17 2 -11 -4 -14 -3 -9 5 4 7 2 12 -3 12 -6 0 -11 7 -11 15 0 8 -6
15 -14 15 -8 0 -18 5 -22 12 -5 7 -2 9 7 4 8 -4 6 -1 -3 7 -10 8 -15 17 -11
20 3 4 1 7 -6 7 -7 0 -10 4 -7 9 3 5 -4 11 -16 14 -18 5 -19 8 -8 22 11 14 11
16 -1 13 -8 -2 -13 3 -12 10 2 6 -4 12 -13 12 -13 0 -14 3 -4 15 10 12 8 13
-10 10 -17 -3 -19 -1 -11 9 8 10 4 20 -16 41 -16 16 -21 25 -13 21 8 -4 4 1
-9 12 -15 12 -22 26 -18 35 4 10 -2 17 -15 21 -19 4 -20 7 -7 22 8 10 9 15 3
11 -6 -3 -16 9 -23 29 -7 19 -15 32 -19 30 -4 -2 -14 3 -22 12 -13 14 -12 15
3 9 16 -6 16 -5 1 18 -16 24 -32 36 -18 13 4 -7 3 -8 -5 -4 -9 6 -9 11 -1 21
9 11 7 17 -9 27 -16 10 -18 15 -8 27 10 12 9 14 -5 8 -13 -4 -16 -1 -13 14 2
10 -2 19 -8 19 -7 0 -6 4 3 10 10 6 11 10 3 10 -7 0 -13 8 -13 17 0 9 -7 24
-16 34 -12 13 -12 19 -3 25 8 5 10 3 4 -6 -6 -9 -4 -11 5 -5 10 6 9 11 -5 22
-14 9 -15 13 -4 13 10 1 9 5 -5 15 -14 11 -16 15 -5 15 10 1 8 4 -5 11 -15 9
-16 13 -5 20 11 7 9 9 -5 9 -19 0 -19 1 -2 13 18 13 18 14 0 32 -10 10 -17 29
-16 42 2 14 -2 23 -10 23 -10 0 -9 3 2 10 12 8 12 10 1 10 -8 0 -11 7 -8 20 3
11 1 20 -3 20 -4 0 -6 9 -3 20 3 11 0 20 -6 20 -7 0 -8 8 -1 25 5 14 6 25 1
25 -12 0 -12 402 1 417 7 9 7 13 -1 13 -8 0 -9 5 -1 19 5 11 10 31 10 45 0 14
6 26 13 26 9 0 8 3 -2 9 -9 6 -10 11 -2 15 6 4 9 12 6 17 -4 5 0 9 7 9 9 0 9
3 -2 10 -12 7 -12 10 -1 10 7 0 11 6 8 15 -4 8 -2 17 4 21 6 3 8 12 5 20 -3 8
-1 14 4 14 6 0 10 5 10 11 0 5 -6 7 -12 3 -9 -6 -9 -3 0 9 8 9 10 22 6 28 -5
8 -3 9 6 4 10 -6 12 -4 7 8 -3 10 -2 17 2 17 5 0 7 9 4 20 -3 11 -2 28 3 37 4
10 9 25 10 33 4 21 9 39 24 90 7 25 13 48 12 53 -1 4 3 7 9 7 5 0 7 5 4 10 -3
6 -1 10 4 10 6 0 11 9 11 19 0 11 5 23 10 26 6 4 10 12 9 18 -3 26 2 38 12 31
7 -4 7 1 -1 16 -8 14 -8 20 -1 16 6 -4 15 11 22 39 6 25 15 45 19 45 4 0 7 12
6 28 -1 21 3 26 18 24 10 -2 15 1 12 6 -8 13 14 73 36 96 10 11 18 26 18 33 0
7 5 13 10 13 6 0 10 7 10 15 0 8 5 15 10 15 6 0 10 7 10 16 0 9 8 23 18 31 10
8 11 11 2 7 -8 -5 -2 9 13 29 15 20 24 37 20 37 -4 0 0 5 10 11 9 6 15 14 12
19 -3 5 3 14 14 20 12 6 18 18 16 30 -2 11 0 18 6 15 5 -4 9 1 9 10 0 9 4 13
10 10 6 -3 7 1 4 9 -4 10 -1 16 7 16 7 0 9 3 6 7 -4 3 -1 13 6 21 10 13 9 14
-3 7 -12 -7 -13 -6 -3 7 7 8 9 19 5 23 -4 5 -1 5 6 1 11 -6 17 5 13 27 0 4 4
7 10 7 5 0 7 5 3 12 -4 6 1 17 12 25 10 8 18 16 17 18 -4 12 11 45 21 45 6 0
4 5 -4 10 -10 6 -11 10 -2 10 6 0 12 7 12 15 0 8 5 15 11 15 8 0 8 4 0 14 -9
11 -9 16 0 22 8 5 10 3 5 -7 -4 -8 -1 -5 8 5 8 10 13 23 10 27 -3 5 0 9 6 9 6
0 9 4 5 10 -3 5 3 18 15 30 12 12 15 20 8 20 -9 0 -8 4 2 10 8 5 11 10 6 10
-4 0 -2 10 6 23 36 54 56 134 61 240 3 58 9 112 13 118 5 8 3 9 -6 4 -9 -6
-11 -4 -5 5 12 19 16 69 15 195 -1 130 -3 155 -14 174 -7 10 -5 12 3 6 10 -6
11 -3 2 12 -6 11 -8 23 -4 26 3 4 1 13 -5 20 -7 8 -9 17 -5 20 3 4 1 7 -7 7
-10 0 -10 3 0 15 7 8 8 15 3 15 -10 0 -37 71 -31 80 1 3 -8 20 -22 39 -13 19
-17 31 -9 26 11 -6 12 -5 2 6 -7 7 -13 21 -13 31 0 10 -4 18 -10 18 -5 0 -10
7 -10 15 0 8 -5 15 -11 15 -5 0 -8 3 -6 8 5 9 -30 42 -37 34 -3 -3 -6 0 -6 7
0 7 -5 9 -10 6 -6 -4 -8 -10 -5 -14 2 -5 -7 -7 -20 -5 -22 2 -24 0 -14 -18 6
-11 7 -18 2 -15 -4 3 -17 -7 -27 -21 -11 -14 -14 -22 -8 -18 7 4 12 2 12 -3 0
-6 -5 -11 -11 -11 -5 0 -7 -4 -4 -10 3 -5 -1 -20 -10 -34 -13 -19 -13 -25 -3
-29 9 -4 10 -6 1 -6 -7 -1 -17 -11 -23 -23 -11 -23 -11 -23 6 -3 l17 20 -8
-20 c-4 -11 -8 -26 -8 -32 0 -7 -3 -13 -7 -13 -5 0 -11 -35 -13 -82 -1 -10 -6
-18 -11 -18 -5 0 -6 -3 -3 -6 3 -4 2 -15 -3 -25 -7 -12 -6 -19 3 -22 7 -3 4
-6 -6 -6 -10 -1 -16 -5 -13 -10 3 -5 -1 -14 -9 -21 -7 -6 -11 -19 -8 -27 4
-11 2 -14 -5 -9 -8 5 -10 1 -5 -10 5 -13 3 -15 -8 -9 -11 7 -11 5 1 -10 8 -10
10 -16 4 -12 -9 5 -43 -54 -48 -86 -1 -7 -6 -18 -10 -26 -7 -10 -5 -12 5 -7 8
4 3 -2 -11 -14 -21 -19 -22 -21 -5 -16 19 6 19 5 2 -8 -14 -10 -15 -15 -5 -19
9 -4 8 -6 -3 -6 -11 -1 -15 -9 -13 -27 2 -18 -1 -24 -11 -20 -11 4 -12 0 -5
-20 6 -15 6 -23 1 -19 -11 6 -25 -31 -16 -44 3 -5 0 -13 -6 -17 -8 -5 -9 -3
-4 7 8 12 6 12 -8 0 -18 -15 -23 -26 -7 -16 6 3 10 -1 10 -10 0 -8 -7 -18 -16
-22 -13 -5 -13 -7 -2 -14 10 -7 10 -9 1 -9 -7 0 -13 -7 -13 -15 0 -8 -4 -15
-10 -15 -5 0 -7 -7 -3 -15 3 -10 0 -15 -8 -13 -8 2 -13 -3 -11 -9 1 -7 -2 -13
-8 -13 -5 0 -7 -7 -4 -15 4 -8 -1 -17 -10 -21 -9 -3 -13 -10 -10 -15 3 -5 0
-9 -6 -9 -6 0 -8 -5 -4 -12 5 -8 2 -9 -10 -5 -9 4 -15 3 -11 -2 3 -6 -3 -15
-12 -21 -15 -9 -14 -10 7 -5 24 6 24 5 -2 -10 -16 -9 -28 -18 -28 -21 0 -3 4
-2 10 1 5 3 7 0 4 -9 -3 -8 -12 -12 -20 -9 -10 4 -12 0 -8 -11 4 -10 1 -16 -9
-16 -8 0 -18 -7 -21 -16 -6 -15 -4 -15 11 -3 16 13 17 12 4 -4 -8 -10 -21 -15
-29 -12 -13 5 -13 3 -1 -12 12 -15 12 -16 -5 -10 -16 6 -17 5 -7 -7 9 -11 9
-16 0 -22 -8 -5 -9 -3 -4 6 5 9 4 11 -3 6 -7 -4 -12 -16 -12 -26 0 -21 -44
-60 -68 -60 -9 0 -13 7 -9 20 3 12 -1 24 -11 30 -10 5 -12 10 -7 10 6 0 10 28
9 66 0 36 3 67 8 70 13 8 9 26 -4 19 -7 -4 -6 -1 3 7 9 7 14 23 13 36 -2 12 0
22 4 22 4 0 8 8 9 18 3 39 8 62 13 62 3 0 4 15 4 32 -1 18 2 38 6 43 4 6 8 17
9 25 4 49 10 80 15 89 4 6 7 149 6 318 -1 362 -2 403 -13 403 -5 0 -6 4 -3 9
4 5 2 21 -4 35 -7 18 -6 26 1 26 8 0 8 4 0 13 -6 8 -8 17 -4 20 3 4 1 7 -6 7
-7 0 -11 8 -9 18 1 9 -1 23 -5 30 -5 7 -3 12 4 12 8 0 6 6 -4 18 -13 15 -14
21 -4 32 9 10 9 11 0 6 -13 -7 -16 3 -16 47 0 11 -5 16 -13 13 -8 -3 -11 0 -7
9 3 8 10 12 17 8 6 -3 3 2 -6 13 -10 11 -16 30 -13 42 2 13 0 20 -6 17 -5 -4
-9 10 -9 30 0 25 -4 34 -12 29 -8 -5 -9 -2 -5 11 4 9 2 25 -5 33 -11 13 -11
14 2 7 12 -7 13 -6 3 7 -7 8 -9 19 -5 23 4 5 1 5 -5 1 -9 -5 -13 1 -13 19 0
15 -4 24 -10 20 -5 -3 -7 0 -4 8 3 8 -2 21 -10 29 -11 11 -12 18 -3 27 8 8 8
11 -2 11 -7 0 -9 5 -6 10 4 6 1 9 -7 8 -7 -2 -14 8 -16 21 -2 13 -10 30 -17
38 -8 7 -12 20 -9 28 4 8 2 15 -4 15 -5 0 -13 7 -16 16 -3 8 -2 12 4 9 6 -3
10 -1 10 4 0 6 -6 11 -13 11 -7 0 -13 10 -14 21 -1 12 -8 29 -16 38 -21 24
-32 45 -20 38 5 -3 10 0 10 8 0 8 -3 13 -6 12 -3 -1 -7 2 -8 6 -1 4 -12 17
-25 28 -13 11 -17 17 -9 14 9 -6 9 -1 -3 17 -9 14 -13 28 -9 31 3 4 1 7 -5 7
-7 0 -12 7 -12 16 0 8 -4 13 -8 10 -5 -3 -9 1 -10 9 -1 8 -3 22 -4 30 -1 8 -5
15 -10 15 -4 0 -8 9 -8 20 0 11 -5 20 -11 20 -5 0 -7 5 -3 12 5 8 2 9 -11 4
-15 -5 -16 -4 -5 9 8 10 9 15 1 15 -6 0 -11 5 -11 11 0 7 -8 18 -17 26 -12 10
-13 12 -3 8 9 -4 8 -1 -3 8 -14 11 -15 16 -5 20 10 4 10 6 1 6 -7 1 -13 6 -13
12 0 16 -26 39 -36 31 -5 -4 -2 1 5 11 10 13 10 17 1 17 -7 0 -10 7 -7 14 4
11 1 13 -10 9 -12 -5 -15 -2 -10 10 4 10 -3 23 -19 36 -16 13 -20 21 -12 24 8
4 7 6 -4 6 -12 1 -15 6 -11 19 3 9 3 14 -2 10 -10 -9 -35 10 -35 26 0 6 5 4
10 -4 6 -9 10 -10 10 -3 0 7 -9 17 -21 23 -11 7 -18 18 -15 25 3 9 0 12 -10 8
-9 -3 -14 1 -14 13 0 15 -2 16 -9 5 -7 -11 -10 -11 -12 4 -3 12 -15 19 -36 21
-18 2 -34 0 -34 -4z m11 -142 c0 -5 -5 -10 -11 -10 -5 0 -7 5 -4 10 3 6 8 10
11 10 2 0 4 -4 4 -10z m1041 -5437 c13 -16 12 -17 -3 -4 -10 7 -18 15 -18 17
0 8 8 3 21 -13z"/>
<path d="M3777 9679 c-9 -5 -22 -7 -27 -4 -6 4 -9 1 -8 -7 2 -7 -5 -12 -14
-12 -10 1 -16 -3 -15 -10 1 -6 -3 -10 -10 -9 -7 2 -10 -6 -8 -16 2 -12 -2 -18
-13 -17 -10 0 -16 -5 -14 -13 2 -9 -3 -11 -14 -7 -15 6 -15 4 -3 -11 9 -11 10
-14 1 -9 -8 5 -15 -2 -22 -19 -5 -14 -17 -28 -25 -32 -9 -3 -14 -12 -10 -21 5
-13 3 -13 -12 -1 -14 12 -16 12 -8 0 6 -11 4 -13 -8 -8 -11 4 -14 2 -10 -9 3
-7 0 -14 -7 -14 -10 0 -10 -3 0 -15 11 -13 10 -14 -5 -9 -12 5 -16 4 -12 -3 4
-6 -1 -14 -10 -17 -15 -6 -15 -8 -3 -16 12 -8 11 -10 -5 -10 -17 0 -17 -2 -5
-10 8 -5 10 -10 4 -10 -7 0 -26 -22 -44 -49 -17 -28 -37 -52 -43 -55 -8 -3 -8
-5 2 -5 8 -1 5 -9 -10 -22 -13 -11 -19 -18 -13 -15 6 3 11 -1 11 -8 0 -9 -7
-12 -15 -8 -11 4 -14 1 -9 -11 6 -15 -2 -21 -24 -19 -3 1 -6 -6 -6 -13 0 -12
3 -12 15 -2 13 10 14 9 2 -10 -8 -12 -18 -19 -22 -17 -8 5 -9 1 -12 -36 0 -12
-8 -25 -16 -30 -13 -9 -13 -10 0 -10 10 0 11 -3 4 -8 -6 -4 -14 -17 -18 -30
-4 -12 -11 -20 -16 -17 -4 3 -7 -6 -5 -20 1 -16 -3 -25 -12 -25 -8 0 -11 -4
-8 -10 3 -5 1 -10 -5 -10 -6 0 -9 -4 -6 -9 4 -5 0 -12 -6 -14 -10 -4 -10 -6 0
-6 6 -1 12 -6 12 -12 0 -5 -4 -7 -10 -4 -5 3 -10 1 -10 -4 0 -20 -3 -26 -18
-37 -11 -8 -12 -13 -3 -18 9 -6 7 -12 -6 -22 -16 -12 -16 -15 -3 -24 11 -7 11
-10 2 -10 -7 0 -10 -5 -7 -11 4 -5 -1 -19 -11 -30 -11 -12 -13 -19 -5 -19 7 0
9 -5 4 -12 -4 -7 -9 -22 -10 -33 -2 -11 -6 -27 -10 -35 -3 -8 -5 -23 -4 -32 1
-10 -4 -18 -11 -18 -9 0 -9 -3 2 -10 13 -9 13 -10 0 -10 -13 0 -13 -1 0 -10 8
-5 10 -10 4 -10 -12 0 -12 -3 -18 -70 -2 -25 -7 -58 -10 -75 -9 -48 -6 -330 4
-330 1 0 3 -18 5 -40 1 -22 3 -40 5 -40 1 0 4 -12 6 -27 2 -16 6 -40 8 -55 2
-16 5 -28 6 -28 2 0 10 -66 11 -90 0 -10 5 -26 12 -34 10 -12 9 -13 -3 -6 -12
6 -12 5 -3 -5 6 -7 9 -19 6 -28 -4 -9 -2 -13 4 -9 7 5 9 0 6 -13 -3 -11 0 -27
7 -35 7 -9 10 -18 7 -22 -4 -3 -1 -13 6 -21 10 -13 9 -15 -3 -8 -8 4 -6 0 4
-8 15 -12 16 -16 5 -16 -11 -1 -10 -4 4 -14 9 -7 17 -16 17 -19 0 -4 -8 -4
-17 0 -17 5 -17 5 0 -8 10 -8 19 -24 20 -37 0 -12 8 -22 17 -23 11 0 11 -2 2
-6 -10 -4 -9 -9 5 -20 10 -8 11 -11 3 -7 -10 5 -8 -1 5 -16 11 -13 14 -20 8
-16 -7 4 -13 2 -13 -3 0 -6 4 -11 9 -11 5 0 12 -7 15 -16 3 -8 2 -12 -4 -9 -6
3 -7 -1 -4 -9 3 -9 11 -13 18 -9 6 3 8 3 4 -2 -4 -4 -3 -16 2 -26 7 -12 6 -19
-3 -22 -6 -3 -3 -6 8 -6 17 -1 17 -3 5 -11 -13 -8 -13 -10 2 -10 12 0 16 -6
13 -20 -2 -11 0 -18 6 -15 5 4 9 -1 9 -10 0 -10 5 -13 13 -9 9 6 9 5 0 -7 -11
-13 -8 -20 12 -39 13 -13 21 -28 18 -34 -4 -6 0 -5 9 2 14 11 16 10 11 -7 -4
-15 -1 -21 11 -21 10 0 14 -4 11 -10 -3 -5 -1 -10 4 -10 6 0 11 -9 11 -20 0
-11 9 -25 19 -32 15 -9 17 -15 9 -26 -6 -7 -7 -12 -2 -11 19 3 34 -1 34 -12 0
-5 -6 -7 -12 -4 -7 3 -3 -2 10 -11 12 -9 22 -25 22 -36 0 -13 5 -18 14 -15 10
4 12 0 9 -14 -3 -10 0 -19 6 -19 6 0 11 -8 11 -19 0 -22 23 -44 35 -33 5 4 5
-1 2 -10 -4 -13 -1 -18 10 -18 9 0 13 -3 10 -6 -7 -7 23 -53 60 -94 13 -14 23
-35 23 -48 0 -13 4 -21 9 -18 5 4 15 -7 23 -24 7 -16 16 -30 20 -30 5 0 8 -7
8 -15 0 -8 4 -15 9 -15 10 0 24 -42 27 -82 1 -17 -4 -29 -14 -34 -29 -12 -42
-13 -42 -1 0 5 -3 8 -6 4 -8 -8 -129 57 -149 80 -5 6 -27 20 -47 31 -21 10
-35 22 -32 25 4 3 -5 9 -19 13 -15 3 -26 9 -25 13 2 19 -3 24 -12 11 -8 -13
-10 -12 -10 3 0 24 -27 50 -45 43 -9 -3 -12 0 -8 10 3 7 0 14 -7 14 -6 0 -8 5
-5 10 3 6 -1 10 -10 10 -9 0 -13 -4 -10 -10 3 -5 1 -10 -4 -10 -14 0 -14 13 1
28 9 9 6 11 -11 7 -17 -3 -21 0 -17 11 3 8 2 13 -2 10 -4 -2 -19 4 -32 15 -21
16 -22 18 -5 13 16 -5 17 -4 5 5 -8 6 -24 11 -35 12 -11 0 -14 3 -7 6 6 2 12
9 12 14 0 6 -3 8 -7 6 -10 -4 -53 40 -45 47 3 3 -2 6 -11 6 -9 0 -18 5 -18 10
-1 6 -2 14 -3 19 0 5 -5 13 -10 18 -6 5 -6 2 -1 -7 5 -8 -4 -4 -18 9 -28 25
-38 42 -13 22 11 -9 16 -9 22 0 4 8 3 9 -5 5 -6 -4 -14 0 -17 8 -3 9 -10 14
-15 11 -10 -7 -31 30 -21 40 4 4 -2 5 -13 3 -11 -1 -20 3 -21 10 -1 6 -2 17
-3 23 0 5 -6 7 -13 3 -8 -5 -9 -2 -5 9 4 12 1 17 -11 17 -15 0 -15 2 -2 10 12
8 10 10 -10 10 -20 0 -22 2 -10 10 10 6 11 10 3 10 -7 0 -13 9 -13 20 0 11 -9
25 -20 32 -11 7 -20 19 -20 27 0 15 -39 90 -58 109 -7 8 -19 12 -27 9 -7 -3
-16 -1 -19 6 -3 9 -5 9 -5 0 -1 -6 -9 -9 -19 -6 -10 2 -30 -7 -47 -23 -17 -14
-23 -23 -15 -18 12 6 13 5 3 -7 -6 -8 -10 -24 -9 -34 2 -11 1 -24 -2 -29 -5
-8 -4 -68 1 -183 1 -13 4 -23 7 -23 3 0 7 -12 8 -27 1 -15 7 -30 13 -34 8 -4
7 -8 -2 -12 -11 -4 -11 -6 -1 -6 7 -1 10 -5 7 -11 -3 -5 2 -10 12 -11 10 0 13
-3 6 -6 -7 -2 -13 -9 -13 -14 0 -6 4 -8 9 -4 5 3 12 1 16 -5 3 -5 0 -10 -7
-10 -8 -1 -7 -5 5 -14 13 -10 15 -16 6 -21 -8 -6 -4 -12 12 -21 15 -8 18 -13
9 -14 -9 0 -11 -3 -5 -8 6 -4 22 -23 35 -42 16 -23 18 -30 7 -21 -15 12 -17
12 -11 -3 3 -9 13 -16 21 -16 12 0 13 -3 4 -14 -9 -11 -9 -16 0 -22 8 -4 9 -3
5 4 -4 7 -2 12 5 12 6 0 9 -8 6 -19 -3 -15 -1 -18 11 -14 10 4 13 2 8 -5 -3
-6 -2 -13 4 -17 5 -3 10 -1 10 6 0 7 3 9 6 6 4 -4 1 -13 -6 -22 -10 -12 -10
-15 3 -15 17 0 40 -32 32 -44 -3 -3 -2 -4 1 -1 4 2 15 -7 26 -20 11 -14 24
-23 28 -20 5 3 7 -4 5 -15 -4 -18 14 -26 48 -21 4 0 6 -2 6 -6 -4 -23 2 -43
11 -38 6 3 10 -1 10 -9 0 -9 5 -16 11 -16 5 0 7 -4 4 -10 -4 -6 1 -7 12 -3 16
6 16 5 5 -10 -12 -14 -11 -16 7 -12 11 2 20 1 20 -3 -1 -4 -1 -14 0 -22 1 -13
2 -13 12 0 9 12 10 11 6 -8 -3 -12 -1 -20 3 -17 5 3 15 2 24 -1 13 -5 14 -9 5
-21 -7 -8 -8 -13 -3 -12 24 4 36 -2 30 -17 -3 -8 -2 -12 3 -9 5 3 12 1 16 -5
4 -6 12 -7 18 -3 7 4 7 0 -1 -10 -12 -14 -11 -16 7 -12 12 2 19 0 16 -6 -4 -5
2 -9 12 -9 15 0 16 -2 3 -10 -12 -8 -11 -10 8 -10 12 0 22 -5 22 -11 0 -5 -5
-7 -12 -3 -7 4 -8 3 -4 -5 4 -6 12 -9 17 -6 5 4 9 1 9 -5 0 -6 5 -8 11 -5 6 4
13 -2 16 -13 3 -11 12 -23 20 -26 9 -4 11 -2 7 6 -4 7 -3 8 4 4 7 -4 12 -15
12 -24 0 -15 2 -15 10 -2 9 13 10 13 11 0 1 -8 1 -18 1 -22 -1 -3 5 -9 14 -12
8 -3 12 -2 9 3 -3 5 -1 13 5 16 6 4 10 3 9 -2 -1 -4 -1 -17 0 -28 1 -17 3 -18
11 -5 7 11 10 11 10 2 0 -7 9 -23 21 -35 19 -21 20 -21 14 -2 -5 16 -4 16 7
-3 11 -18 16 -20 27 -10 11 11 12 9 6 -9 -5 -19 -2 -23 15 -23 14 0 19 -4 14
-12 -5 -8 -2 -9 9 -5 9 3 19 1 23 -5 4 -7 3 -8 -4 -4 -7 4 -12 3 -12 -3 0 -5
9 -13 20 -16 11 -3 20 -11 20 -16 0 -5 5 -9 11 -9 5 0 7 5 3 12 -4 7 -3 8 5 4
6 -4 9 -12 6 -17 -4 -5 -1 -9 5 -9 6 0 8 -4 5 -10 -3 -5 0 -7 8 -4 8 3 18 0
23 -7 5 -8 3 -10 -6 -4 -9 5 -11 4 -6 -3 4 -7 14 -12 22 -12 9 0 12 -5 8 -12
-4 -7 -3 -8 5 -4 6 4 14 0 17 -8 3 -9 14 -16 24 -16 11 0 22 -5 26 -12 5 -7 3
-8 -6 -3 -9 5 -11 4 -6 -4 6 -9 11 -9 22 0 12 10 13 9 8 -6 -6 -14 -4 -16 6
-10 10 6 12 4 7 -9 -5 -12 -3 -15 5 -9 7 4 21 8 30 8 14 1 15 -1 7 -12 -11
-12 -1 -18 24 -14 4 0 7 -7 8 -17 0 -11 2 -12 6 -4 4 9 10 7 23 -8 13 -15 19
-17 23 -8 4 8 6 7 6 -4 1 -12 6 -15 18 -11 12 5 15 2 10 -10 -6 -15 -3 -16 13
-7 16 9 20 8 20 -5 0 -8 7 -15 15 -15 8 0 15 -5 15 -11 0 -5 4 -8 9 -4 5 3 12
1 16 -5 4 -6 10 -8 14 -6 4 3 14 -4 21 -15 8 -10 23 -19 33 -19 12 0 16 -4 11
-12 -4 -7 -4 -10 1 -6 4 4 14 3 22 -3 7 -6 13 -8 13 -3 0 5 5 2 10 -6 9 -13
11 -13 21 0 8 12 9 11 4 -7 -5 -18 -2 -20 15 -16 12 3 20 0 20 -7 0 -7 7 -10
16 -6 8 3 12 2 9 -4 -3 -6 -1 -10 5 -10 6 0 8 -6 4 -12 -5 -10 -4 -10 6 -1 14
12 64 -3 55 -17 -3 -4 3 -14 12 -21 11 -10 14 -10 9 -2 -5 9 -2 11 8 7 9 -3
14 -11 13 -17 -1 -6 8 -13 21 -15 20 -3 27 -13 23 -34 -2 -12 17 -9 25 4 5 7
10 4 15 -10 7 -20 26 -28 53 -23 5 1 3 -5 -4 -14 -11 -13 -10 -15 4 -9 9 4 18
0 22 -9 3 -9 12 -13 20 -10 7 3 16 -2 20 -10 3 -9 12 -13 21 -10 11 4 14 2 9
-5 -7 -11 6 -17 28 -13 5 1 4 -5 -3 -13 -10 -12 -9 -14 8 -9 15 4 21 1 21 -10
0 -9 9 -19 20 -22 11 -3 20 -11 20 -17 0 -6 9 -8 19 -5 14 3 18 1 14 -9 -3 -8
0 -14 7 -14 6 0 8 -4 5 -10 -3 -5 1 -10 10 -10 9 0 13 5 10 10 -3 6 -1 10 4
10 15 0 14 -13 -1 -29 -11 -11 -9 -11 12 -1 23 12 24 12 11 -4 -12 -14 -12
-16 4 -10 13 5 16 4 11 -4 -4 -7 -1 -12 9 -12 8 0 18 -7 21 -15 4 -8 11 -12
17 -8 6 4 8 -2 5 -15 -4 -13 -2 -19 6 -16 16 6 58 -30 48 -41 -4 -5 -1 -5 6
-1 8 5 22 -2 36 -17 13 -14 33 -28 44 -32 12 -3 22 -13 22 -21 0 -8 4 -13 9
-10 5 3 11 -1 15 -9 3 -8 12 -15 21 -15 8 0 15 -8 15 -19 0 -10 8 -25 18 -32
15 -13 16 -12 3 4 -8 9 -11 20 -9 23 3 3 12 -9 19 -25 8 -17 17 -31 21 -31 4
0 19 -11 33 -26 14 -14 29 -22 35 -19 5 3 7 -4 5 -16 -2 -12 -2 -19 1 -16 10
9 45 -33 38 -45 -5 -8 -2 -9 9 -5 11 4 17 1 17 -7 0 -7 11 -21 24 -32 14 -10
23 -21 20 -26 -3 -4 3 -8 13 -8 15 0 16 -2 3 -10 -13 -8 -12 -10 3 -10 10 0
21 -8 24 -17 9 -23 29 -43 43 -43 6 0 8 -4 5 -10 -3 -5 -1 -10 5 -10 6 0 8 -4
5 -10 -3 -6 4 -10 17 -11 22 0 22 -1 3 -9 -18 -8 -19 -9 -1 -9 12 -1 16 -6 13
-16 -4 -8 -1 -17 5 -21 7 -4 8 -3 4 4 -4 7 -1 12 8 12 9 0 15 -3 15 -7 -4 -25
2 -43 13 -37 6 4 8 3 5 -3 -9 -14 22 -55 36 -46 7 4 6 0 -2 -10 -9 -12 -10
-17 -2 -17 7 0 9 -5 5 -12 -5 -8 -2 -9 11 -4 15 5 16 4 5 -9 -10 -12 -10 -15
4 -15 10 0 14 -4 11 -10 -3 -5 -1 -10 4 -10 6 0 11 -9 11 -20 0 -11 7 -20 15
-20 8 0 15 -5 15 -11 0 -5 -6 -7 -12 -4 -7 4 -6 1 3 -7 9 -7 14 -18 12 -25 -2
-6 1 -15 8 -19 8 -5 9 -3 4 6 -5 8 -4 11 2 7 6 -4 10 -20 9 -36 -2 -24 1 -29
18 -26 18 3 19 2 5 -7 -15 -11 -15 -13 5 -31 11 -10 15 -15 7 -12 -9 6 -9 1 3
-17 9 -14 13 -28 9 -31 -3 -4 0 -7 8 -7 11 0 11 -2 -1 -10 -12 -8 -12 -10 -1
-10 8 0 11 -7 8 -20 -3 -11 -1 -18 3 -15 5 3 11 1 15 -5 3 -5 0 -10 -7 -10
-10 0 -10 -2 1 -9 8 -5 11 -16 8 -24 -3 -9 1 -18 10 -21 13 -5 13 -9 2 -23
-10 -12 -10 -14 -1 -9 11 7 18 -19 13 -48 -1 -5 6 -18 16 -29 13 -14 13 -18 3
-12 -10 6 -9 2 3 -12 13 -15 15 -23 7 -28 -8 -5 -9 -10 -2 -14 6 -3 12 -20 14
-36 2 -17 6 -32 10 -35 4 -3 8 -20 10 -38 1 -18 5 -32 9 -32 4 0 10 -7 13 -16
3 -8 2 -12 -4 -9 -6 3 -7 -1 -4 -10 9 -23 84 -53 84 -34 0 5 7 9 15 9 9 0 20
11 25 25 5 14 14 25 20 25 6 0 8 5 5 10 -3 6 -2 10 3 10 9 0 18 20 20 44 0 5
7 13 16 18 9 5 16 20 16 33 0 14 6 25 13 25 8 0 7 4 -3 10 -13 8 -12 10 3 10
9 0 17 5 17 11 0 5 -5 7 -12 3 -6 -4 -3 4 8 18 10 14 24 23 29 20 6 -3 4 2 -4
11 -8 11 -9 17 -3 17 7 0 9 7 5 17 -4 11 -3 14 5 9 7 -4 12 -4 13 1 2 27 9 47
17 52 4 3 8 19 7 34 -1 15 3 30 8 34 6 4 7 1 2 -7 -6 -9 -4 -11 4 -5 9 5 9 11
3 17 -14 14 -3 40 12 31 6 -4 5 1 -3 10 -8 10 -9 17 -3 17 6 0 9 9 7 20 -2 11
1 20 6 20 6 0 8 4 4 9 -3 5 -1 12 3 15 5 3 7 16 5 30 -3 13 0 33 6 45 8 15 9
21 1 21 -6 0 -8 5 -3 13 11 17 12 37 16 265 3 111 1 202 -3 202 -4 0 -5 11 -3
24 3 13 0 34 -7 46 -9 17 -9 21 0 15 9 -6 9 -3 1 12 -6 11 -8 23 -4 26 3 4 0
13 -7 22 -7 8 -9 15 -5 15 4 0 1 8 -6 17 -12 15 -12 16 1 8 12 -6 13 -5 3 6
-7 7 -13 21 -13 31 0 10 -6 18 -12 18 -9 0 -8 4 2 10 8 5 10 10 4 10 -6 0 -11
6 -12 13 -3 33 -11 52 -21 50 -15 -4 -14 3 5 21 14 15 14 16 -1 16 -12 0 -15
5 -10 21 5 16 4 19 -6 14 -9 -6 -11 -3 -6 8 3 10 2 17 -3 17 -5 0 -7 6 -4 14
3 8 0 17 -5 21 -6 3 -9 11 -6 16 4 5 2 9 -4 9 -6 0 -8 6 -5 14 3 8 0 17 -7 22
-8 5 -10 3 -4 -6 5 -9 4 -11 -4 -6 -9 6 -9 11 1 24 11 13 10 15 -4 9 -12 -4
-15 -2 -11 9 3 7 1 14 -5 14 -6 0 -9 11 -8 25 2 13 0 24 -3 23 -19 -2 -24 4
-11 12 12 8 11 11 -8 16 -21 6 -21 7 -5 20 16 12 16 12 -7 7 -21 -6 -23 -4
-13 9 15 18 7 29 -15 21 -15 -4 -15 -3 -2 6 13 9 13 12 1 20 -7 5 -11 13 -7
19 3 6 1 14 -5 18 -8 5 -9 3 -4 -6 5 -8 4 -11 -3 -6 -6 4 -8 14 -5 23 5 13 2
15 -12 10 -15 -6 -16 -5 -5 8 8 10 9 15 1 15 -6 0 -11 9 -11 20 0 11 -4 20 -9
20 -5 0 -11 13 -14 28 -3 16 -16 34 -29 41 -13 6 -15 9 -5 7 15 -5 16 -2 7 14
-11 21 -25 28 -15 8 4 -7 0 -5 -8 4 -8 10 -16 15 -19 13 -3 -3 -4 6 -3 20 3
22 1 24 -18 13 -20 -10 -21 -10 -8 6 11 13 11 16 1 14 -7 -2 -15 3 -18 11 -3
9 0 11 8 6 8 -5 11 -4 6 3 -4 6 -13 9 -21 5 -10 -3 -15 1 -15 12 0 9 -4 13
-10 10 -5 -3 -10 1 -10 11 0 12 -6 15 -21 11 -16 -4 -18 -3 -8 9 9 11 7 14
-12 14 -19 0 -21 2 -9 10 11 7 11 10 2 10 -8 0 -10 5 -6 13 5 7 2 7 -10 -2 -9
-8 -16 -10 -15 -5 4 24 -3 34 -23 35 -13 0 -17 3 -11 6 10 3 10 8 -1 19 -8 8
-20 14 -26 14 -7 0 -9 7 -6 16 3 8 2 13 -3 10 -5 -3 -12 1 -15 10 -3 8 -10 12
-16 9 -5 -3 -7 0 -4 8 3 8 0 18 -5 22 -6 3 -8 11 -5 17 5 7 1 7 -12 0 -14 -8
-22 -5 -36 13 -10 13 -18 28 -18 35 0 7 -8 9 -22 4 -21 -6 -22 -5 -8 11 14 17
13 18 -2 12 -13 -4 -15 -2 -11 10 4 11 2 14 -5 9 -7 -4 -12 -2 -12 3 0 6 -7
11 -15 11 -8 0 -15 5 -15 10 0 6 -8 10 -17 10 -16 0 -16 2 -3 11 12 9 10 10
-8 6 -20 -5 -22 -3 -10 11 10 12 10 14 1 8 -7 -4 -13 -3 -13 3 0 6 -7 7 -17 4
-11 -4 -14 -3 -9 5 4 7 2 12 -4 12 -6 0 -8 4 -5 10 3 6 -1 7 -9 4 -9 -3 -16
-1 -16 6 0 6 -4 8 -10 5 -13 -8 -52 19 -42 30 4 4 1 6 -7 3 -8 -2 -25 7 -38
20 -16 15 -31 22 -44 19 -17 -5 -18 -3 -7 11 7 9 8 13 2 9 -6 -4 -22 2 -34 13
-12 11 -27 17 -31 14 -5 -3 -9 0 -9 5 0 6 -6 11 -14 11 -8 0 -18 5 -22 12 -5
7 -3 8 6 3 8 -5 11 -4 6 3 -4 6 -14 8 -23 5 -11 -4 -14 -3 -9 5 5 8 0 12 -14
12 -11 0 -24 8 -27 18 -8 19 -28 42 -38 42 -3 0 -3 -4 0 -10 3 -6 -1 -7 -10
-3 -14 5 -14 8 -3 15 10 8 10 11 0 15 -6 2 -10 8 -7 13 3 4 -3 6 -13 3 -11 -2
-26 5 -37 19 l-20 23 25 -20 25 -20 -19 23 c-11 12 -31 22 -45 22 -20 0 -23 2
-11 10 10 6 11 10 3 10 -7 0 -13 6 -13 14 0 9 -7 13 -19 11 -15 -3 -18 1 -15
18 2 12 2 17 -2 10 -7 -15 -44 20 -44 43 0 10 -5 14 -16 10 -8 -3 -12 -2 -9 4
3 6 1 10 -4 10 -6 0 -11 5 -11 11 0 5 6 7 13 3 7 -4 8 -3 4 2 -5 5 -15 9 -24
9 -8 0 -22 11 -30 25 l-15 25 21 -25 c21 -24 22 -24 11 -2 -6 13 -21 27 -33
32 -12 5 -18 9 -14 9 4 1 2 7 -5 15 -7 8 -16 12 -20 9 -4 -2 -5 3 -2 11 4 11
0 16 -10 16 -9 0 -16 5 -16 11 0 5 5 7 12 3 7 -4 8 -3 4 5 -6 9 -11 9 -22 0
-12 -9 -13 -9 -9 3 4 9 -1 18 -9 21 -9 4 -16 13 -16 22 0 14 -12 20 -35 15 -5
-1 -4 4 3 11 6 7 12 18 12 23 0 6 -5 4 -10 -4 -7 -11 -10 -11 -10 -2 0 7 -5
10 -10 7 -6 -4 -9 -1 -8 7 2 7 -3 12 -10 10 -6 -1 -11 1 -11 5 4 26 -3 43 -18
43 -15 0 -16 2 -3 10 12 8 12 10 -5 10 -17 0 -17 2 -5 10 13 8 13 10 -2 10
-10 0 -15 7 -14 18 2 9 -7 30 -20 45 -13 16 -22 32 -19 37 3 5 -4 12 -16 15
-17 6 -19 9 -8 16 12 7 11 9 -1 10 -8 1 -19 1 -23 0 -5 -1 -7 4 -5 10 2 7 -6
23 -19 37 -13 14 -23 31 -23 38 0 8 -5 14 -11 14 -5 0 -7 5 -4 10 3 6 -1 10
-11 10 -11 0 -15 6 -11 20 5 18 -3 25 -25 21 -4 0 -5 6 -2 14 4 8 1 15 -6 15
-9 0 -9 4 1 17 10 11 10 14 2 9 -12 -6 -18 11 -14 37 2 11 -14 8 -28 -5 -11
-11 -12 -10 -7 0 4 7 2 20 -6 29 -8 10 -8 14 -1 10 6 -4 15 -2 19 4 4 8 3 9
-4 5 -7 -4 -12 -2 -12 4 0 6 -4 8 -10 5 -6 -4 -10 7 -10 24 0 17 -5 31 -11 31
-6 0 -9 9 -6 20 3 10 2 19 -2 18 -3 0 -13 0 -21 1 -13 1 -13 2 0 11 11 7 12
10 2 10 -9 0 -11 7 -7 20 4 14 2 20 -7 18 -8 -2 -12 4 -10 16 2 10 -1 15 -6
12 -6 -3 -12 1 -16 9 -3 8 0 15 7 15 8 0 7 4 -3 9 -8 6 -18 7 -23 4 -5 -3 -4
4 2 15 8 15 7 23 -4 32 -8 7 -15 21 -15 32 0 15 -5 18 -16 14 -14 -5 -15 -4
-5 7 9 11 8 17 -5 28 -9 7 -14 22 -11 35 2 13 1 23 -2 22 -18 -2 -22 4 -11 17
10 12 10 15 -3 15 -11 0 -14 6 -10 15 3 9 -3 25 -13 37 -12 14 -14 18 -4 13
12 -7 13 -6 3 7 -7 8 -10 18 -6 21 3 4 0 7 -7 7 -7 0 -10 3 -7 7 4 3 1 13 -6
21 -10 13 -9 14 1 8 11 -7 12 -4 3 11 -6 11 -7 23 -4 27 3 3 -2 6 -13 7 -10 0
-13 3 -6 6 15 6 16 33 1 33 -6 0 -9 7 -5 15 3 8 1 15 -5 15 -6 0 -9 7 -5 15 3
8 1 15 -5 15 -6 0 -7 5 -4 10 3 6 1 10 -6 10 -10 0 -10 3 -2 11 9 9 8 17 -2
33 -7 11 -11 29 -10 39 2 9 -1 15 -5 12 -5 -3 -8 3 -8 12 1 24 -9 70 -18 84
-5 8 -3 9 6 4 9 -5 11 -4 6 4 -7 11 -12 33 -23 101 -8 51 -12 830 -4 830 4 0
8 10 8 23 1 12 5 45 9 72 3 28 7 65 8 83 0 17 4 32 8 32 4 0 4 10 0 23 -5 12
-7 34 -6 50 2 18 -2 27 -11 27 -8 0 -20 8 -27 18 -16 20 -46 26 -71 11z m-372
-2479 c10 -11 16 -20 13 -20 -3 0 -13 9 -23 20 -10 11 -16 20 -13 20 3 0 13
-9 23 -20z m-385 -40 c0 -5 -2 -10 -4 -10 -3 0 -8 5 -11 10 -3 6 -1 10 4 10 6
0 11 -4 11 -10z m474 -86 c3 -8 2 -12 -4 -9 -6 3 -10 10 -10 16 0 14 7 11 14
-7z m955 3 c8 -10 7 -14 -2 -14 -8 0 -14 6 -14 14 0 7 1 13 2 13 2 0 8 -6 14
-13z m796 -815 c-3 -3 -11 0 -18 7 -9 10 -8 11 6 5 10 -3 15 -9 12 -12z"/>
<path d="M3855 9670 c3 -5 8 -10 11 -10 2 0 4 5 4 10 0 6 -5 10 -11 10 -5 0
-7 -4 -4 -10z"/>
<path d="M3606 9533 c-6 -14 -5 -15 5 -6 7 7 10 15 7 18 -3 3 -9 -2 -12 -12z"/>
<path d="M7792 9521 c-7 -4 -26 -7 -42 -6 -17 1 -30 -2 -30 -7 0 -4 -3 -7 -7
-7 -22 4 -33 -2 -27 -13 5 -8 0 -7 -11 2 -10 8 -16 10 -12 3 8 -13 -26 -37
-37 -25 -4 3 -4 -2 0 -13 4 -11 4 -17 -1 -13 -9 8 -40 -20 -31 -29 3 -3 -2
-12 -12 -20 -11 -10 -12 -12 -2 -8 8 4 4 -2 -9 -13 -16 -13 -20 -21 -12 -26 7
-5 8 -13 2 -24 -9 -17 -8 -161 3 -462 10 -261 15 -381 21 -595 4 -110 8 -243
10 -295 8 -238 19 -663 18 -737 0 -62 -5 -93 -22 -128 -12 -25 -26 -43 -31
-40 -6 4 -7 -1 -3 -11 5 -14 3 -16 -11 -11 -10 4 -15 3 -11 -3 11 -17 -83 -51
-115 -40 -3 0 -23 3 -45 5 -22 3 -41 9 -43 15 -2 5 -8 8 -13 4 -5 -3 -9 2 -9
10 0 9 -4 16 -9 16 -14 0 -52 57 -54 80 -1 11 -4 20 -7 20 -4 0 -7 6 -7 13 0
6 -4 109 -7 227 -6 190 -15 444 -18 523 -1 15 -5 27 -10 27 -4 0 -5 7 -2 15 4
8 1 15 -6 15 -6 0 -8 5 -5 10 3 6 1 10 -5 10 -6 0 -9 4 -5 9 3 5 -2 16 -10 24
-8 9 -15 23 -15 31 0 9 -4 16 -10 16 -5 0 -7 -8 -3 -17 5 -15 3 -14 -10 2 -8
11 -13 24 -9 30 3 5 -2 4 -12 -4 -15 -12 -17 -12 -14 0 2 9 -4 13 -16 11 -11
-2 -15 1 -11 7 12 20 -177 20 -202 0 -13 -11 -15 -11 -9 -1 7 11 4 11 -12 1
-12 -7 -18 -17 -16 -21 3 -4 -4 -8 -16 -8 -14 0 -19 -4 -14 -12 5 -7 2 -9 -9
-5 -12 4 -14 2 -10 -10 5 -12 3 -14 -7 -8 -10 6 -12 4 -7 -8 4 -11 1 -17 -9
-17 -8 0 -13 -4 -9 -9 3 -5 1 -12 -5 -16 -6 -4 -8 -10 -5 -15 3 -5 0 -12 -6
-16 -8 -4 -7 -9 2 -15 11 -7 11 -9 1 -9 -10 0 -12 -56 -7 -287 3 -159 8 -333
11 -387 7 -126 -1 -175 -29 -186 -14 -5 -16 -9 -7 -10 12 0 11 -4 -4 -15 -11
-8 -16 -15 -12 -15 4 0 -6 -12 -23 -26 -20 -16 -39 -24 -51 -21 -11 3 -18 1
-15 -3 11 -18 -100 -8 -142 12 -39 19 -48 28 -44 51 1 5 -3 6 -8 2 -11 -6 -29
22 -35 57 -3 13 -5 24 -7 26 -6 8 -4 29 5 41 8 11 8 13 -1 7 -10 -6 -13 34
-14 186 0 106 -2 225 -4 263 -1 39 -6 252 -9 475 -10 580 -19 794 -35 845 -5
17 -10 22 -10 13 -1 -10 -6 -18 -12 -18 -5 0 -8 4 -5 9 9 14 -23 6 -37 -9 -10
-12 -9 -12 3 -5 13 8 13 7 0 -5 -9 -9 -14 -22 -12 -29 3 -8 0 -11 -7 -7 -6 4
-11 0 -11 -9 0 -9 -4 -13 -10 -10 -6 3 -7 -1 -4 -9 4 -10 1 -16 -10 -16 -10 0
-13 -6 -10 -15 4 -8 1 -15 -5 -15 -6 0 -11 -5 -11 -11 0 -5 5 -7 12 -3 7 5 8
3 4 -5 -5 -7 -13 -10 -20 -8 -7 3 -11 -5 -10 -22 1 -14 -5 -34 -13 -43 -9 -10
-12 -22 -7 -30 5 -9 2 -8 -11 2 -17 14 -17 13 -10 -9 6 -19 4 -23 -7 -18 -8 3
-15 0 -16 -6 -3 -32 -10 -51 -20 -55 -6 -2 -8 -10 -5 -19 4 -10 2 -14 -4 -10
-6 4 -13 -2 -16 -14 -5 -18 -3 -18 11 -7 16 12 16 11 1 -7 -9 -11 -35 -60 -58
-110 -23 -49 -46 -97 -50 -105 -5 -9 -12 -30 -16 -49 -4 -18 -13 -35 -22 -38
-8 -3 -12 -12 -9 -19 3 -8 1 -14 -5 -14 -6 0 -7 -4 -4 -10 3 -5 1 -10 -5 -10
-7 0 -9 -7 -6 -16 3 -8 2 -12 -4 -9 -6 3 -10 -3 -10 -14 0 -12 -6 -21 -12 -21
-9 0 -8 -4 2 -10 8 -5 10 -10 4 -10 -6 0 -11 -8 -12 -17 -4 -39 -2 -413 2
-483 3 -41 8 -151 11 -245 10 -265 14 -320 29 -344 7 -11 6 -12 -5 -6 -11 7
-12 6 -2 -6 11 -14 13 -19 13 -40 0 -5 5 -7 12 -3 6 4 8 3 5 -4 -9 -14 3 -43
14 -36 5 3 6 -2 3 -10 -3 -9 -1 -16 6 -16 6 0 8 -4 5 -10 -3 -5 -1 -10 4 -10
6 0 11 -5 11 -11 0 -16 26 -39 35 -31 5 4 5 2 1 -5 -3 -6 -2 -14 4 -18 6 -4 7
-11 4 -17 -4 -6 -3 -9 2 -6 5 3 15 0 22 -8 8 -9 9 -14 2 -14 -6 0 -1 -11 12
-25 35 -37 49 -55 43 -55 -5 0 17 -29 43 -55 6 -8 12 -17 12 -22 0 -4 16 -26
35 -48 19 -22 35 -43 35 -47 0 -4 16 -24 35 -45 19 -21 35 -44 35 -52 0 -8 3
-12 6 -8 8 7 28 -12 36 -34 4 -9 16 -19 27 -22 12 -3 19 -1 15 4 -3 5 -2 15 2
21 9 14 10 29 18 163 5 99 13 135 29 135 6 0 8 3 4 6 -9 10 53 65 65 58 7 -4
8 -2 4 4 -4 7 -2 13 3 13 15 2 31 6 34 9 7 7 77 5 77 -3 0 -4 4 -5 10 -2 5 3
24 -2 42 -12 18 -9 36 -16 41 -15 4 1 7 -2 7 -6 0 -5 8 -17 18 -28 29 -32 43
-74 49 -148 3 -39 7 -87 8 -106 2 -19 4 -37 5 -40 1 -3 2 -8 1 -12 0 -5 3 -8
8 -8 4 0 7 -11 6 -25 -2 -13 0 -24 3 -24 19 3 32 -2 32 -12 0 -5 -6 -7 -12 -3
-7 4 -2 -5 11 -19 14 -15 33 -27 43 -27 11 0 16 -4 13 -10 -5 -9 23 -15 48
-11 4 0 7 -4 7 -10 0 -5 8 -9 18 -8 9 1 22 0 27 -1 27 -6 51 -4 57 5 5 6 8 4
8 -4 0 -11 4 -10 16 5 8 10 13 14 10 8 -4 -8 3 -11 18 -10 13 0 22 4 19 9 -4
6 12 11 30 8 4 0 7 6 7 14 0 13 18 20 42 16 4 0 5 6 1 15 -3 9 0 14 8 12 8 -2
13 3 11 10 -1 6 3 12 9 12 5 0 7 5 4 10 -3 6 1 13 9 16 9 3 16 10 16 16 0 5
-4 7 -8 4 -5 -3 -9 1 -9 9 0 8 4 12 9 9 9 -6 9 -10 14 76 8 144 12 176 24 205
7 17 13 33 12 38 -2 6 13 11 30 8 4 0 5 6 2 13 -3 9 3 17 18 21 13 4 25 11 28
16 8 12 131 23 139 12 3 -4 20 -15 36 -25 29 -16 81 -79 83 -102 8 -86 13
-174 15 -278 1 -71 4 -128 8 -128 3 0 6 -11 7 -25 1 -14 3 -36 4 -50 1 -14 6
-25 10 -25 4 0 8 -9 8 -21 0 -11 4 -18 9 -15 5 3 12 -1 15 -10 4 -10 2 -13 -7
-8 -6 4 -3 -2 7 -15 11 -12 26 -19 33 -17 7 3 15 0 19 -6 4 -7 3 -8 -4 -4 -7
4 -12 1 -12 -9 0 -10 5 -13 12 -9 6 4 17 -1 25 -11 9 -14 13 -15 13 -4 0 10 2
11 8 2 4 -6 36 -13 72 -14 89 -3 122 -1 116 10 -3 4 6 6 21 3 20 -4 24 -2 18
8 -6 10 -4 12 9 7 11 -5 15 -3 10 5 -5 8 -2 9 10 5 10 -4 15 -3 11 3 -7 12 31
51 41 42 4 -4 4 1 1 10 -3 9 1 22 9 29 8 7 13 18 10 25 -3 7 -1 16 5 20 10 6
7 357 -8 719 -6 154 -8 564 -3 617 1 10 5 20 11 23 5 4 9 18 9 32 0 19 4 24
16 19 8 -3 13 -2 10 3 -3 4 2 17 10 27 9 10 13 12 9 4 -4 -9 0 -7 9 4 8 10 20
15 27 10 8 -4 10 -3 5 4 -6 11 6 16 27 13 4 0 7 4 7 11 0 9 3 9 12 0 7 -7 17
-8 29 -2 11 7 20 7 24 0 3 -5 12 -7 20 -3 8 3 15 0 15 -6 0 -6 6 -8 13 -5 8 3
30 -10 50 -29 29 -26 34 -36 24 -46 -9 -10 -8 -11 7 -5 15 6 18 4 13 -9 -3 -8
-1 -17 4 -19 6 -2 11 -18 11 -35 1 -18 4 -31 7 -29 6 4 7 -6 11 -96 2 -27 6
-48 9 -48 4 0 8 -11 9 -25 4 -50 6 -55 26 -56 20 0 20 -1 2 -8 -18 -7 -18 -8
-2 -14 9 -4 15 -11 12 -16 -3 -5 1 -14 9 -21 8 -7 15 -10 15 -6 0 4 11 -1 24
-9 22 -15 62 -27 94 -28 6 0 12 -4 12 -9 0 -5 9 -4 19 2 14 7 22 7 26 0 5 -8
11 -7 21 1 11 9 14 9 14 -1 0 -9 4 -9 17 1 9 8 25 13 36 11 13 -3 17 0 12 9
-6 8 -4 10 4 5 7 -5 19 0 27 10 9 11 12 12 8 4 -7 -13 -6 -13 10 -1 9 8 14 21
11 29 -5 13 -3 13 12 1 11 -9 14 -10 9 -1 -4 7 -2 12 4 12 6 0 8 5 5 10 -3 6
-1 10 5 10 6 0 8 5 5 10 -3 6 -1 10 5 10 6 0 8 5 5 10 -3 6 -2 10 2 10 5 0 10
10 12 23 7 40 5 368 -2 607 -10 275 -10 281 -21 299 -7 11 -6 12 5 6 11 -7 12
-6 2 7 -7 8 -10 17 -7 21 3 3 -2 17 -11 31 -10 14 -14 26 -9 26 4 0 -5 14 -21
30 -16 17 -35 30 -42 30 -7 0 -13 5 -13 11 0 5 -4 8 -9 5 -5 -4 -11 -1 -13 4
-2 6 -10 12 -18 13 -8 2 -19 5 -25 8 -21 12 -156 3 -164 -10 -7 -11 -10 -11
-14 0 -3 9 -6 7 -6 -6 -1 -17 -3 -17 -11 -5 -6 10 -10 11 -10 3 0 -7 -7 -13
-16 -13 -9 0 -12 -5 -8 -12 5 -8 2 -9 -11 -4 -15 5 -16 4 -5 -9 7 -9 9 -15 4
-14 -18 3 -37 -1 -31 -8 4 -3 -1 -12 -11 -19 -14 -11 -14 -13 -2 -14 12 0 12
-2 2 -9 -7 -4 -14 -18 -15 -29 -1 -12 -4 -22 -7 -22 -3 0 -7 -28 -8 -62 -6
-126 -19 -208 -34 -208 -6 0 -7 -7 -4 -16 3 -8 2 -12 -4 -9 -6 3 -14 -5 -20
-19 -5 -14 -12 -26 -15 -26 -4 0 -3 5 0 11 4 6 -2 5 -13 -2 -12 -7 -19 -16
-16 -20 2 -5 -5 -6 -16 -4 -11 2 -20 0 -20 -5 0 -13 -113 -1 -122 13 -6 9 -8
9 -8 -1 0 -7 -5 -10 -10 -7 -6 4 -8 11 -4 16 3 5 2 8 -3 7 -17 -5 -54 24 -49
38 3 7 2 13 -2 13 -19 -3 -25 2 -12 11 13 8 12 10 -3 10 -10 0 -15 5 -12 10 3
6 2 10 -2 10 -5 0 -9 8 -10 18 -3 38 -12 127 -13 127 -2 0 -13 384 -27 870 -3
138 -7 262 -7 278 -1 15 -4 27 -7 27 -3 0 -6 7 -7 15 -1 8 -3 22 -4 30 -1 8
-5 15 -10 15 -5 0 -7 4 -4 9 8 13 -66 91 -87 91 -9 0 -17 5 -17 11 0 5 -4 7
-10 4 -5 -3 -10 0 -10 7 0 9 -3 9 -10 -2 -5 -8 -10 -10 -10 -3 0 6 -8 10 -17
8 -10 -1 -25 1 -34 6 -8 4 -21 4 -27 0z m1119 -1188 c13 -16 12 -17 -3 -4 -10
7 -18 15 -18 17 0 8 8 3 21 -13z m-341 -1113 c0 -5 -2 -10 -4 -10 -3 0 -8 5
-11 10 -3 6 -1 10 4 10 6 0 11 -4 11 -10z m-1726 -906 c3 -8 2 -12 -4 -9 -6 3
-10 10 -10 16 0 14 7 11 14 -7z"/>
<path d="M5545 9350 c-4 -6 -11 -7 -17 -4 -7 4 -8 2 -4 -5 6 -9 11 -9 22 0 14
11 18 19 10 19 -3 0 -8 -5 -11 -10z"/>
<path d="M6120 8740 c-9 -6 -10 -10 -3 -10 6 0 15 5 18 10 8 12 4 12 -15 0z"/>
<path d="M5830 6640 c0 -5 5 -10 11 -10 5 0 7 5 4 10 -3 6 -8 10 -11 10 -2 0
-4 -4 -4 -10z"/>
<path d="M5560 6043 c0 -6 8 -17 18 -24 16 -13 16 -13 2 6 -8 11 -16 22 -17
24 -2 2 -3 0 -3 -6z"/>
<path d="M8295 5710 c-11 -5 -16 -9 -11 -9 5 -1 3 -8 -4 -16 -13 -15 -11 -315
2 -315 4 0 6 -8 6 -17 -1 -10 2 -47 6 -83 3 -36 9 -105 12 -155 3 -49 7 -101
8 -115 1 -14 5 -31 9 -37 5 -8 3 -13 -3 -13 -7 0 -8 -5 -3 -12 12 -20 14 -188
1 -188 -7 0 -6 -5 2 -15 7 -8 8 -15 3 -15 -5 0 -10 -6 -11 -12 0 -7 -3 -22 -6
-33 -2 -11 -5 -26 -5 -33 -1 -7 -5 -10 -11 -7 -5 3 -10 2 -10 -2 0 -19 -26
-44 -50 -48 -23 -4 -25 -2 -24 36 0 24 -5 43 -12 46 -6 2 -10 13 -7 24 3 11 0
19 -7 19 -7 0 -10 8 -7 20 3 13 0 20 -10 20 -8 0 -11 5 -8 10 3 6 -2 10 -12
10 -11 0 -14 3 -7 8 9 5 8 11 -2 20 -8 7 -14 9 -14 5 -1 -4 -8 3 -16 17 -11
18 -14 20 -10 5 6 -19 6 -19 -11 1 -20 24 -59 42 -47 21 6 -9 5 -9 -7 0 -13
11 -41 19 -72 22 -14 2 27 50 43 51 13 0 13 1 0 10 -13 8 -13 10 2 10 11 0 15
5 12 15 -5 11 -2 13 10 9 12 -5 15 -2 10 10 -5 12 0 19 15 23 20 5 20 6 4 18
-17 13 -17 13 2 12 13 -1 19 3 17 14 -1 9 5 20 14 23 13 5 14 9 3 22 -10 12
-10 15 2 12 9 -2 14 5 13 20 -1 12 2 22 7 22 4 0 6 9 4 20 -2 11 -1 20 3 20 8
0 5 89 -3 135 -4 17 -7 40 -7 52 0 12 -4 21 -8 20 -4 -1 -8 2 -9 6 -1 12 -28
37 -40 37 -6 0 -11 5 -11 10 0 6 -7 10 -15 10 -8 0 -15 8 -15 17 0 9 -3 13 -7
10 -3 -4 -16 1 -27 10 -20 17 -20 17 -6 -2 15 -19 15 -19 -13 -2 -15 10 -32
15 -37 12 -5 -3 -11 -2 -14 3 -2 4 -35 6 -73 4 -37 -2 -78 -4 -90 -5 -13 -1
-23 -4 -23 -9 0 -4 -7 -5 -15 -2 -8 4 -15 1 -15 -6 0 -7 -8 -10 -20 -7 -21 5
-44 -15 -32 -29 4 -4 -1 -2 -11 6 -15 11 -18 11 -15 -1 2 -8 -7 -15 -21 -17
-19 -3 -21 -6 -10 -13 11 -7 10 -9 -4 -9 -11 0 -15 -4 -11 -12 5 -8 2 -9 -10
-5 -10 4 -15 3 -11 -3 3 -5 -5 -15 -19 -22 -14 -6 -26 -15 -26 -20 0 -5 5 -6
12 -2 7 5 8 3 4 -5 -5 -7 -10 -10 -13 -7 -3 3 -13 -4 -22 -16 -16 -19 -18 -19
-33 -4 -9 9 -22 16 -29 16 -8 0 -8 5 2 17 10 11 10 14 2 9 -8 -4 -13 -2 -13 4
0 6 -4 8 -10 5 -5 -3 -10 1 -10 9 0 10 -9 16 -22 16 -13 0 -18 3 -12 8 7 4 0
16 -20 32 l-31 24 20 -24 20 -24 -26 20 c-15 10 -25 22 -23 25 6 10 -28 23
-50 20 -11 -2 -16 2 -12 8 6 9 -6 13 -30 10 -4 0 -11 5 -15 13 -7 10 -9 10 -9
-2 0 -12 -2 -12 -8 -2 -5 7 -23 14 -40 15 -18 1 -32 4 -32 7 0 3 -45 6 -100 5
-55 0 -100 -4 -100 -8 0 -5 -4 -5 -10 -2 -5 3 -10 0 -10 -7 0 -9 -3 -9 -10 2
-6 9 -10 11 -10 3 0 -7 -7 -10 -17 -6 -11 4 -14 3 -9 -5 5 -8 0 -12 -13 -12
-30 0 -52 -11 -44 -23 4 -6 0 -8 -10 -4 -15 6 -22 -3 -18 -25 0 -4 -6 -5 -14
-2 -8 4 -15 1 -15 -6 0 -6 -4 -9 -9 -6 -4 3 -19 -6 -32 -20 -21 -22 -21 -24
-4 -18 20 7 20 7 0 -9 -11 -8 -23 -13 -27 -11 -4 2 -10 -1 -14 -7 -4 -8 -3 -9
4 -5 7 4 12 3 12 -3 0 -6 -9 -15 -21 -21 -17 -10 -18 -14 -7 -28 7 -9 8 -13 3
-10 -6 4 -17 -2 -24 -14 -10 -16 -10 -19 1 -12 10 6 9 3 -1 -10 -17 -21 -24
-214 -9 -233 7 -9 7 -13 -2 -13 -9 0 -7 -8 5 -26 14 -21 14 -28 3 -42 -9 -11
-10 -14 0 -8 8 5 12 -1 12 -19 0 -17 4 -24 11 -19 7 4 10 1 7 -7 -3 -8 2 -20
11 -27 14 -12 14 -13 -4 -8 -19 6 -19 5 -2 -8 9 -7 17 -19 17 -25 0 -7 5 -9
13 -5 7 5 7 1 -3 -12 -8 -10 -11 -16 -6 -12 11 10 39 -19 31 -32 -4 -6 -1 -9
6 -8 7 2 13 -2 14 -9 0 -6 4 -15 9 -20 5 -5 6 -3 2 5 -4 6 -2 12 3 12 10 0 15
-14 12 -33 -1 -5 3 -6 9 -2 9 5 14 -6 12 -25 0 -3 9 -7 21 -7 12 -1 30 -13 40
-27 12 -16 24 -23 34 -19 10 4 14 2 10 -4 -8 -13 14 -23 49 -23 13 0 24 -4 24
-9 0 -5 -15 -8 -34 -7 -19 2 -40 0 -47 -5 -8 -4 -19 -3 -26 3 -9 7 -14 6 -19
-6 -3 -9 -10 -14 -14 -11 -5 3 -11 1 -15 -5 -4 -6 -11 -7 -17 -4 -7 5 -9 1 -5
-9 3 -9 3 -16 -1 -16 -22 4 -30 -3 -27 -21 2 -11 0 -20 -4 -20 -5 0 -9 -30
-10 -66 -1 -55 2 -69 18 -84 12 -9 19 -19 16 -21 -2 -3 30 -5 71 -6 44 0 74 3
74 9 0 6 7 5 16 -3 10 -8 18 -9 22 -3 4 6 18 10 32 10 16 0 24 5 22 15 -3 11
-1 11 9 2 8 -8 17 -9 33 -1 54 28 58 29 51 19 -3 -6 -2 -11 4 -11 5 0 11 4 13
9 2 6 16 12 33 15 16 3 31 10 33 16 2 6 11 6 25 -2 20 -10 21 -10 8 6 -12 14
-12 16 4 10 14 -6 16 -4 10 7 -7 12 -6 12 7 1 13 -10 17 -10 22 4 5 14 9 14
23 3 14 -12 16 -12 8 0 -6 11 -4 13 11 7 10 -4 15 -4 11 1 -5 4 7 13 25 19 18
6 32 17 30 24 -3 11 0 11 12 0 14 -10 16 -10 16 5 0 15 2 16 17 4 11 -10 14
-10 9 -1 -7 11 6 16 42 15 10 -1 10 2 0 15 -9 11 -9 14 -1 9 13 -8 51 10 69
33 7 8 16 12 20 7 4 -4 2 -7 -4 -7 -7 0 -12 -5 -12 -10 0 -13 27 0 57 29 25
24 31 19 29 -27 0 -17 3 -32 7 -32 5 0 5 -4 2 -10 -3 -5 -2 -10 4 -10 6 0 8
-7 5 -15 -4 -8 -1 -15 5 -15 6 0 8 -7 5 -15 -4 -10 0 -15 12 -15 9 0 15 -3 11
-6 -3 -4 1 -13 9 -21 8 -8 11 -20 7 -26 -4 -6 0 -8 10 -4 11 4 17 1 17 -8 0
-8 7 -15 16 -15 8 0 13 -4 10 -8 -3 -5 0 -9 7 -10 19 -1 41 -7 52 -13 9 -5
180 -5 180 0 0 1 32 4 70 7 202 14 253 19 295 29 14 4 30 7 37 7 7 1 15 8 18
16 4 12 8 12 22 1 10 -8 14 -9 10 -2 -4 7 1 14 13 18 11 4 18 11 15 16 -4 5 0
9 7 9 8 0 15 10 16 23 10 107 -4 336 -23 367 -3 6 -1 10 5 10 6 0 9 4 6 8 -8
13 -18 73 -18 109 0 22 -4 31 -11 26 -8 -4 -8 -1 0 9 7 8 10 17 7 20 -15 15
-27 508 -13 508 4 0 6 10 4 22 -3 12 0 27 6 35 8 9 8 13 0 13 -13 0 -10 22 4
32 6 5 5 8 -2 8 -7 0 -13 12 -13 28 0 16 -8 34 -19 42 -11 7 -17 18 -14 24 4
5 -1 7 -10 3 -10 -3 -17 -3 -17 1 0 11 -31 11 -55 2z m-1263 -475 c5 -6 8 -5
8 3 0 8 5 10 12 6 7 -4 28 -8 48 -9 20 -1 41 -4 48 -9 7 -4 17 -4 22 -1 6 3
10 1 10 -5 0 -7 7 -10 15 -6 9 3 15 0 15 -9 0 -8 7 -15 15 -15 8 0 15 -5 15
-11 0 -5 4 -8 9 -5 12 8 34 -21 27 -33 -4 -6 2 -8 12 -6 11 2 19 -3 20 -11 1
-8 3 -21 4 -29 1 -8 5 -12 10 -9 4 3 8 0 8 -6 0 -6 5 -8 13 -4 8 5 8 2 -2 -9
-13 -16 -8 -22 13 -18 5 1 4 -4 -2 -11 -6 -8 -7 -19 -2 -28 5 -8 6 -18 4 -22
-3 -4 -1 -8 3 -8 5 0 8 -17 8 -37 0 -33 9 -102 18 -141 9 -35 72 -51 94 -24 8
9 12 12 9 6 -3 -7 2 -18 12 -25 15 -13 16 -12 4 2 -10 14 -10 20 3 33 12 12
13 16 3 17 -10 0 -10 2 0 6 6 2 9 9 6 15 -4 6 0 14 7 19 8 5 9 9 3 9 -12 0
-13 145 -1 157 4 3 7 16 7 29 0 33 11 55 24 47 8 -5 8 -3 0 8 -9 11 -9 17 1
26 7 6 16 9 21 5 4 -4 4 -1 0 6 -8 13 15 42 33 42 6 0 11 5 11 11 0 6 7 8 16
5 8 -3 13 -2 10 3 -5 8 11 13 79 28 42 9 101 9 118 1 12 -6 17 -5 17 4 0 10 2
10 9 -1 5 -7 14 -10 20 -7 6 4 11 2 11 -3 0 -6 7 -11 15 -11 8 0 15 -6 15 -14
0 -8 6 -16 14 -19 15 -6 16 -63 2 -85 -4 -7 -4 -18 0 -24 5 -8 0 -7 -11 2 -11
9 -16 10 -11 3 4 -7 3 -13 -3 -13 -6 0 -7 -7 -4 -17 5 -12 3 -14 -7 -8 -10 6
-12 4 -7 -9 4 -10 3 -15 -3 -11 -6 3 -10 -2 -10 -12 0 -15 -2 -16 -10 -3 -8
13 -10 12 -11 -5 -1 -11 -1 -23 0 -27 0 -4 -7 -4 -16 -1 -10 4 -14 2 -10 -4 4
-6 -3 -13 -14 -16 -12 -3 -19 -9 -16 -14 3 -4 -2 -17 -10 -28 -12 -15 -14 -16
-10 -3 4 12 2 15 -8 12 -8 -3 -11 -13 -7 -22 5 -15 4 -16 -13 -2 -11 9 -16 10
-11 3 4 -8 2 -13 -4 -13 -6 0 -9 -4 -5 -9 3 -5 1 -12 -5 -16 -5 -3 -10 -1 -10
5 0 6 -4 9 -10 5 -5 -3 -7 -12 -4 -20 4 -10 0 -12 -15 -8 -15 4 -21 1 -21 -10
0 -19 -36 -41 -50 -32 -9 6 -14 -8 -11 -27 0 -4 -10 -3 -24 2 -20 8 -23 7 -18
-8 6 -15 5 -16 -12 -2 -17 14 -18 14 -7 -6 9 -16 8 -21 -3 -21 -8 0 -12 4 -9
9 3 4 0 8 -5 8 -6 0 -11 -5 -11 -11 0 -6 -7 -9 -14 -6 -10 4 -13 1 -10 -8 4
-9 -2 -13 -19 -11 -16 2 -24 -1 -21 -8 3 -7 -5 -12 -17 -13 -12 -1 -26 -8 -30
-15 -7 -10 -9 -10 -9 2 0 11 -3 11 -12 2 -7 -7 -20 -12 -30 -12 -10 0 -18 -4
-18 -9 0 -5 -11 -8 -25 -6 -14 1 -25 -1 -25 -6 0 -4 -9 -6 -20 -4 -11 2 -20
-1 -20 -7 0 -5 -7 -8 -15 -4 -8 3 -15 1 -15 -4 0 -6 -10 -9 -22 -9 -17 1 -19
2 -5 6 9 2 17 9 17 15 0 5 6 8 14 5 8 -3 20 2 28 10 11 14 11 16 -4 10 -10 -3
-20 -1 -24 5 -4 6 -3 8 3 5 10 -6 25 14 27 35 1 4 9 13 18 20 21 16 29 54 27
136 -1 91 -2 102 -12 102 -5 0 -7 9 -4 19 3 13 -1 21 -14 24 -13 3 -17 11 -13
21 4 11 0 16 -12 16 -16 0 -17 2 -4 10 13 8 12 10 -2 10 -10 0 -18 7 -18 16 0
10 -6 14 -15 10 -9 -3 -21 4 -31 19 -14 21 -33 31 -76 41 -5 1 -9 3 -10 4 -7
7 -134 6 -144 -1 -6 -5 -20 -10 -32 -12 -11 -2 -33 -16 -49 -32 -15 -16 -22
-25 -15 -21 11 7 11 4 1 -12 -7 -12 -17 -18 -23 -15 -5 3 -6 1 -2 -6 4 -6 2
-19 -6 -28 -7 -9 -8 -14 -2 -10 7 4 15 0 18 -9 4 -10 2 -13 -6 -8 -8 5 -9 2
-5 -10 6 -14 3 -17 -8 -12 -9 3 -13 2 -10 -4 3 -6 15 -10 27 -10 17 0 18 -3 8
-15 -7 -8 -16 -13 -20 -10 -4 3 -14 -3 -21 -13 -13 -15 -12 -16 3 -4 18 14 34
0 22 -20 -4 -7 -3 -8 5 -4 6 4 10 14 9 21 -2 8 2 13 7 13 6 -1 9 -11 8 -22 -1
-15 0 -16 3 -3 3 9 10 17 16 17 5 0 7 -7 4 -16 -4 -9 -2 -13 5 -8 6 4 15 0 20
-7 6 -10 9 -11 9 -1 0 6 5 12 11 12 5 0 7 -6 3 -12 -4 -7 6 1 22 17 16 17 26
26 22 21 -15 -20 -8 -26 10 -8 11 9 17 20 15 24 -9 18 93 31 115 15 6 -5 12
-6 12 -3 0 4 7 0 16 -8 8 -9 19 -14 24 -11 5 3 7 -3 6 -12 -2 -10 0 -28 5 -40
6 -16 4 -25 -7 -31 -9 -5 -15 -13 -15 -18 0 -5 -12 -12 -27 -17 -40 -11 -142
-16 -142 -6 0 4 -9 6 -20 4 -11 -2 -22 0 -25 5 -3 5 -13 6 -22 3 -10 -4 -14
-2 -10 4 4 6 0 14 -9 17 -8 3 -12 2 -9 -4 3 -6 -1 -7 -10 -4 -19 8 -13 30 6
26 8 -2 10 0 6 4 -10 11 -38 14 -32 4 3 -4 -4 -10 -16 -13 -16 -4 -18 -3 -9 8
10 11 8 13 -9 10 -15 -3 -18 0 -14 12 5 13 2 15 -11 10 -9 -4 -15 -3 -12 2 3
5 -1 14 -9 21 -8 7 -15 19 -15 26 0 8 -6 14 -12 14 -9 0 -8 4 2 10 8 5 10 10
4 10 -13 0 -25 58 -13 66 4 2 6 13 4 24 -2 11 0 20 6 20 5 0 9 9 9 21 0 11 4
18 9 15 5 -3 15 2 22 11 12 14 12 16 -1 8 -8 -4 -6 1 5 12 11 11 22 16 24 11
2 -5 10 0 18 11 8 12 23 21 34 21 10 0 19 5 19 11 0 6 9 9 20 6 11 -3 20 -1
20 3 0 5 9 7 20 5 11 -2 20 0 20 4 0 11 44 8 52 -4z m-129 -110 c-3 -9 -8 -14
-10 -11 -3 3 -2 9 2 15 9 16 15 13 8 -4z m1132 -448 c11 -11 12 -17 4 -17 -7
0 -10 -3 -7 -6 11 -11 -40 -54 -71 -60 -17 -4 -31 -9 -31 -13 0 -4 -31 -7 -70
-7 -38 0 -67 3 -64 8 3 4 0 8 -5 8 -6 0 -10 10 -8 23 2 24 18 47 28 41 3 -2
15 4 25 12 10 9 13 12 5 8 -10 -5 -12 -3 -7 5 6 9 11 9 21 1 10 -8 15 -8 20 0
4 6 13 9 21 6 8 -3 14 -1 14 3 0 17 107 6 125 -12z m-1185 -33 c0 -8 -19 -13
-24 -6 -3 5 1 9 9 9 8 0 15 -2 15 -3z"/>
<path d="M7190 5121 c0 -6 4 -13 10 -16 6 -3 7 1 4 9 -7 18 -14 21 -14 7z"/>
<path d="M7650 4815 c-11 -13 -10 -14 4 -9 9 3 16 10 16 15 0 13 -6 11 -20 -6z"/>
<path d="M7454 4742 c4 -3 14 -7 22 -8 9 -1 13 0 10 4 -4 3 -14 7 -22 8 -9 1
-13 0 -10 -4z"/>
<path d="M4387 5509 c7 -7 15 -10 18 -7 3 3 -2 9 -12 12 -14 6 -15 5 -6 -5z"/>
<path d="M8673 5505 c-17 -12 -22 -12 -26 -2 -4 9 -6 9 -6 -1 -1 -7 -5 -10
-11 -7 -5 3 -10 2 -10 -4 0 -6 -7 -7 -17 -4 -11 4 -14 3 -9 -5 4 -7 2 -12 -4
-12 -6 0 -8 -5 -4 -12 6 -9 3 -9 -9 0 -14 12 -16 11 -12 -8 3 -16 0 -20 -10
-16 -10 4 -15 -1 -15 -14 0 -11 -3 -20 -7 -20 -5 0 -8 -27 -8 -60 0 -33 3 -60
7 -60 4 0 5 -7 2 -15 -4 -8 -1 -21 5 -29 6 -7 8 -16 4 -19 -3 -4 2 -7 13 -7
16 0 17 -2 4 -10 -13 -9 -13 -10 0 -11 8 -1 19 -1 23 0 5 1 5 -3 2 -10 -4 -6
2 -19 14 -30 23 -22 36 -25 25 -6 -4 6 1 5 12 -4 12 -11 30 -15 49 -12 17 2
36 5 42 5 9 1 10 5 2 15 -6 7 -9 14 -5 14 3 1 11 3 16 4 6 1 15 3 21 4 6 0 9
7 6 15 -4 9 2 13 16 12 12 -1 25 2 28 6 7 11 79 17 85 7 2 -4 13 -6 24 -4 11
2 20 -1 20 -6 0 -6 4 -8 8 -5 5 3 21 -2 36 -9 16 -8 32 -12 37 -9 8 5 13 -9
10 -28 0 -4 8 -9 18 -13 10 -3 21 -15 24 -26 3 -12 9 -19 14 -16 5 3 8 -13 8
-36 -1 -23 4 -45 9 -49 7 -5 7 -8 -1 -8 -7 0 -10 -7 -7 -15 4 -8 1 -15 -6 -15
-6 0 -8 -4 -5 -10 3 -5 1 -10 -5 -10 -7 0 -9 -7 -6 -16 3 -8 2 -12 -4 -9 -6 3
-10 1 -10 -4 0 -6 -7 -11 -15 -11 -8 0 -15 -5 -15 -11 0 -5 -4 -7 -10 -4 -5 3
-10 1 -10 -5 0 -6 -4 -8 -10 -5 -5 3 -10 2 -10 -3 0 -5 -11 -8 -25 -7 -14 2
-25 0 -25 -3 0 -8 -70 -9 -85 -1 -5 3 -21 5 -35 4 -14 0 -31 6 -39 13 -7 7
-19 11 -26 8 -8 -3 -16 2 -19 10 -4 10 -13 13 -25 9 -11 -3 -23 0 -27 6 -5 8
-3 10 7 4 8 -5 11 -4 6 0 -10 12 -47 14 -47 3 0 -4 -5 -7 -12 -6 -7 2 -13 -3
-14 -9 -1 -7 -2 -14 -4 -15 -6 -8 -9 -75 -3 -88 8 -18 10 -28 11 -58 1 -15 6
-21 14 -16 8 5 9 2 5 -9 -4 -12 -1 -17 11 -17 15 0 15 -2 2 -10 -13 -8 -12
-10 3 -10 10 0 16 -4 13 -9 -3 -5 8 -14 24 -21 16 -7 28 -17 27 -23 -1 -6 3
-12 8 -12 6 -1 21 -5 34 -9 27 -9 161 -15 161 -7 0 4 16 7 35 7 22 1 42 9 51
20 9 11 13 14 10 7 -4 -7 1 -11 13 -10 11 0 18 4 15 9 -7 11 35 30 49 22 6 -4
9 -4 5 1 -4 4 0 14 10 22 9 8 11 11 3 7 -10 -5 -12 -3 -7 5 6 9 11 9 24 -1 10
-8 13 -9 9 -1 -4 6 0 18 9 27 8 9 12 21 8 28 -5 9 -2 8 9 -1 15 -12 17 -12 11
3 -4 11 -1 16 11 16 15 0 16 2 4 17 -10 11 -10 14 -1 9 7 -4 12 -1 12 9 0 9 4
14 9 10 6 -3 8 4 6 15 -2 11 0 20 5 20 5 0 7 9 5 20 -2 11 0 20 5 20 4 0 8 56
7 125 0 69 -4 125 -9 125 -5 0 -6 5 -3 10 4 6 1 17 -5 25 -10 11 -10 15 -1 15
7 0 9 5 6 10 -4 6 -10 8 -14 6 -3 -3 -7 3 -8 12 -4 51 -8 60 -23 54 -13 -5
-13 -3 -1 11 12 15 12 17 -1 12 -11 -4 -17 3 -22 25 -3 17 -10 29 -14 26 -11
-7 -63 50 -55 58 6 5 -20 10 -39 7 -4 0 -5 6 -2 13 6 15 -29 40 -40 29 -3 -3
-6 -1 -6 6 0 7 -4 10 -9 7 -5 -3 -12 1 -15 10 -4 9 -13 14 -21 10 -8 -3 -15
-1 -15 4 0 5 -9 7 -20 5 -11 -2 -20 0 -20 4 0 5 -9 11 -20 14 -11 3 -20 0 -20
-6 0 -8 -3 -8 -8 -2 -10 15 -152 15 -152 1 0 -7 -3 -6 -8 1 -6 10 -13 9 -29
-2z"/>
<path d="M9571 4832 c-7 -7 -16 -10 -22 -7 -5 4 -9 1 -9 -5 0 -6 -4 -9 -9 -6
-5 3 -12 -1 -15 -10 -3 -8 -10 -13 -15 -9 -6 3 -8 -4 -6 -16 3 -16 1 -18 -9
-10 -10 9 -13 6 -11 -13 2 -16 -2 -23 -13 -22 -11 1 -16 -8 -17 -29 0 -16 -4
-36 -8 -42 -5 -7 -4 -13 2 -13 5 0 8 -9 6 -21 -4 -17 -2 -19 10 -9 12 10 15 9
15 -9 0 -11 6 -21 13 -21 40 -1 65 -108 37 -160 -10 -18 -9 -21 1 -15 9 6 11
3 6 -8 -3 -9 -2 -19 4 -22 5 -4 7 -10 4 -15 -7 -11 31 -23 45 -15 6 4 7 12 3
18 -4 7 2 5 12 -3 11 -9 16 -10 11 -2 -4 7 -2 12 4 12 7 0 9 7 6 16 -6 15 -4
15 11 3 9 -8 14 -9 10 -2 -9 15 2 45 15 37 5 -3 9 0 7 7 -3 27 1 40 11 34 5
-3 7 0 4 8 -3 8 0 18 5 22 6 3 9 11 6 16 -4 5 -1 9 5 9 6 0 9 4 6 9 -4 5 0 12
6 14 10 4 10 8 -1 15 -7 5 -9 11 -3 13 5 2 13 15 17 28 6 18 4 22 -6 15 -11
-6 -12 -5 -2 7 15 19 11 151 -5 157 -7 2 -12 8 -12 14 0 15 -24 35 -38 30 -6
-2 -12 0 -12 5 0 14 -56 10 -69 -5z"/>
<path d="M10104 4682 c4 -7 1 -12 -9 -12 -10 0 -14 -5 -9 -12 5 -10 4 -10 -5
-2 -14 13 -54 7 -46 -6 3 -5 -4 -6 -15 -3 -13 3 -20 0 -20 -8 0 -11 -2 -11
-10 1 -8 13 -10 13 -10 -1 0 -10 -7 -16 -17 -15 -10 0 -17 -4 -16 -11 2 -7 -4
-10 -12 -7 -8 4 -15 1 -15 -7 0 -7 -3 -10 -6 -6 -9 9 -33 -16 -26 -28 3 -5 -2
-4 -11 4 -15 12 -17 12 -10 -4 5 -15 3 -17 -12 -12 -16 7 -16 5 -4 -10 8 -9 9
-14 3 -10 -14 8 -45 -35 -47 -64 -1 -10 -4 -19 -7 -19 -4 0 -7 -13 -7 -30 0
-16 5 -30 11 -30 7 0 7 -3 1 -8 -12 -9 -16 -52 -4 -52 5 0 7 -14 5 -31 -3 -24
0 -29 13 -24 12 5 13 3 4 -6 -9 -9 -8 -15 3 -26 8 -8 12 -19 9 -24 -4 -5 1 -9
10 -9 9 0 14 -4 10 -9 -3 -5 0 -13 7 -18 18 -11 58 -11 51 1 -4 5 1 7 11 3 11
-5 16 -2 14 7 -2 8 7 25 20 38 12 12 36 38 52 55 16 18 35 34 42 35 7 2 19 9
26 16 7 6 22 12 33 12 10 0 19 5 19 11 0 8 4 8 14 0 9 -8 16 -8 20 -2 9 14 79
7 84 -7 2 -7 8 -10 13 -6 5 3 10 -1 11 -8 0 -7 2 -17 2 -23 1 -5 5 -15 8 -21
4 -6 -1 -26 -11 -45 -10 -19 -16 -41 -13 -49 3 -8 1 -12 -3 -7 -11 9 -45 -42
-45 -68 0 -17 -2 -17 -10 -5 -7 11 -10 12 -10 2 0 -8 -14 -28 -32 -45 -18 -18
-28 -26 -24 -19 7 11 4 11 -12 1 -12 -7 -18 -17 -16 -21 3 -4 -2 -8 -10 -8 -9
0 -16 -6 -16 -12 0 -9 -4 -8 -10 2 -8 13 -10 13 -10 -2 0 -11 -5 -15 -14 -12
-7 3 -20 -2 -29 -10 -8 -8 -21 -17 -28 -18 -8 -2 -20 -10 -27 -18 -12 -13 -13
-13 -7 0 5 12 4 12 -7 -1 -7 -9 -19 -14 -25 -12 -7 3 -13 0 -13 -6 0 -6 -5
-11 -11 -11 -6 0 -17 -7 -26 -15 -8 -8 -19 -12 -25 -9 -6 4 -8 2 -4 -4 3 -6 1
-14 -5 -17 -5 -4 -8 -13 -5 -21 3 -8 2 -14 -3 -14 -9 0 -7 -106 3 -137 4 -13
12 -23 18 -23 5 0 8 -6 5 -14 -4 -9 0 -13 11 -12 9 2 22 -3 29 -10 9 -9 49
-11 155 -8 175 6 168 5 168 18 0 6 5 4 10 -4 6 -9 10 -10 10 -3 0 6 9 10 20 8
11 -2 25 2 32 9 7 7 19 11 26 8 6 -2 12 1 12 6 0 5 8 9 18 8 10 0 17 6 16 16
-1 10 4 14 12 11 8 -3 14 1 14 11 0 9 4 16 8 16 4 0 13 18 19 40 7 29 7 40 -1
40 -6 0 -5 4 3 9 9 6 10 11 2 15 -7 5 -7 15 -1 31 6 16 6 25 0 25 -6 0 -10 9
-10 19 0 10 -7 22 -16 25 -10 4 -13 2 -8 -7 4 -6 -3 -2 -14 10 -20 20 -24 21
-70 8 -67 -17 -80 -7 -42 33 17 18 35 32 40 32 6 0 10 5 10 11 0 5 -4 8 -9 4
-5 -3 -13 0 -17 6 -4 8 -3 9 4 5 7 -4 12 -2 12 4 0 6 5 8 12 4 7 -5 9 -2 5 8
-4 11 1 18 15 22 18 4 19 7 8 21 -11 14 -11 16 1 13 8 -2 18 -7 22 -13 5 -5 5
0 2 13 -4 12 -2 22 4 22 5 0 8 9 6 21 -4 17 -2 19 11 8 12 -10 13 -9 8 5 -4 9
-1 16 6 16 10 0 10 3 0 15 -11 13 -10 14 6 8 17 -6 18 -5 4 13 -8 10 -11 16
-6 12 13 -11 37 19 41 52 2 17 10 39 17 48 10 12 10 14 1 8 -7 -4 -13 -3 -13
3 0 5 4 12 9 15 12 8 14 166 2 166 -6 0 -8 7 -4 15 3 9 -3 25 -13 37 -11 12
-13 18 -5 13 10 -5 12 -4 7 3 -4 7 -14 12 -22 12 -8 0 -13 6 -11 13 1 6 -4 11
-10 10 -7 -2 -13 2 -13 8 0 6 -7 8 -16 5 -8 -3 -12 -2 -9 4 5 9 -23 15 -47 11
-5 0 -8 5 -8 12 0 8 -4 7 -10 -3 -5 -8 -10 -10 -10 -4 0 8 -108 13 -117 4 -7
-6 -50 -3 -62 5 -10 5 -12 4 -7 -3z m136 -522 c-6 -11 -13 -20 -16 -20 -2 0 0
9 6 20 6 11 13 20 16 20 2 0 0 -9 -6 -20z"/>
<path d="M10735 4680 c-4 -6 -11 -7 -17 -4 -8 5 -9 1 -4 -11 5 -14 4 -16 -8
-6 -11 9 -15 8 -20 -5 -5 -14 -9 -14 -23 -3 -12 10 -14 10 -9 2 12 -21 -3 -36
-22 -21 -12 10 -14 10 -8 1 4 -8 2 -13 -4 -13 -6 0 -8 -5 -4 -12 5 -8 0 -7
-11 2 -10 8 -16 10 -12 3 4 -6 -4 -21 -20 -33 -25 -20 -27 -27 -29 -105 -2
-62 1 -87 12 -96 8 -6 14 -18 14 -26 0 -9 6 -13 15 -9 8 3 15 1 15 -5 0 -6 4
-8 9 -4 5 3 12 1 16 -5 4 -6 12 -5 21 5 9 8 19 13 24 10 12 -8 18 -65 6 -65
-7 0 -8 -3 -1 -8 6 -4 11 -58 11 -127 1 -66 4 -158 8 -205 5 -47 8 -95 9 -107
1 -13 6 -23 12 -23 5 0 3 -5 -5 -10 -11 -7 -11 -10 -2 -10 7 0 10 -4 7 -10 -3
-5 -1 -10 6 -10 9 0 9 -3 0 -14 -10 -12 -8 -17 8 -25 11 -6 18 -17 15 -24 -3
-8 1 -14 8 -15 7 -1 24 -3 38 -5 30 -4 63 10 55 24 -4 5 -2 9 3 9 4 0 8 12 9
28 0 33 15 504 17 547 1 17 4 35 7 40 3 6 5 24 5 42 -1 17 2 29 7 26 6 -4 12
29 8 51 -1 5 4 13 11 17 10 7 10 9 -1 9 -11 0 -11 3 -1 15 7 8 8 15 4 15 -5 0
-9 20 -9 45 1 25 -3 45 -7 45 -4 0 -5 7 -2 15 4 8 1 15 -6 15 -6 0 -8 5 -5 10
3 6 -1 10 -10 10 -9 0 -14 4 -11 9 16 26 -84 42 -113 18 -12 -9 -13 -9 -7 1 4
6 5 12 2 12 -3 0 -8 -5 -11 -10z"/>
<path d="M9304 4558 c-3 -5 -10 -6 -15 -3 -5 4 -9 1 -9 -5 0 -6 -5 -8 -12 -4
-6 4 -8 3 -4 -4 3 -6 1 -14 -5 -17 -5 -4 -8 -13 -5 -21 3 -8 2 -14 -3 -14 -10
0 -7 -142 4 -160 5 -9 4 -15 -3 -18 -7 -2 -9 -9 -5 -15 4 -7 9 -19 10 -27 6
-31 16 -229 17 -323 0 -103 -7 -122 -47 -113 -9 2 -14 0 -11 -6 3 -5 -2 -8
-12 -7 -11 2 -24 0 -31 -4 -6 -4 -54 -10 -105 -12 -51 -3 -108 -6 -125 -8 -19
-2 -33 2 -33 7 0 8 -3 8 -8 1 -8 -12 -43 -12 -61 -1 -6 4 -11 2 -11 -4 0 -6
-5 -8 -12 -4 -7 4 -32 9 -55 11 -66 4 -79 15 -86 73 -3 28 -2 61 2 73 4 12 8
34 7 49 -1 14 2 24 6 22 4 -3 8 6 8 19 0 14 16 42 40 67 38 41 41 42 86 37 56
-6 68 -17 68 -62 0 -48 -42 -87 -96 -89 -9 0 -14 -4 -12 -8 5 -7 -10 -12 -28
-9 -8 1 -21 -36 -22 -59 -1 -23 45 -62 59 -50 8 6 18 5 31 -4 11 -8 25 -11 34
-6 8 4 23 6 33 5 9 -2 17 1 17 6 0 4 7 5 17 2 11 -4 14 -3 9 5 -5 8 -2 10 8 6
8 -3 29 1 47 10 17 9 35 14 39 11 4 -3 7 3 6 12 0 10 9 19 24 23 14 4 24 12
22 18 -1 7 2 12 7 12 5 0 16 12 26 26 12 18 13 24 4 19 -8 -3 -6 0 4 8 20 16
23 31 5 22 -7 -4 -5 0 5 8 13 11 17 30 17 88 0 96 -2 129 -11 129 -4 0 -10 7
-13 16 -4 9 -2 13 5 8 8 -4 7 0 0 15 -7 11 -14 21 -17 21 -3 0 -2 -5 2 -12 4
-7 3 -8 -4 -4 -6 4 -9 13 -5 21 3 8 0 15 -6 15 -6 0 -11 8 -11 17 0 9 -3 14
-6 10 -8 -8 -33 16 -27 26 2 4 -3 7 -11 7 -9 0 -16 5 -16 10 0 6 -5 10 -11 10
-5 0 -7 -6 -3 -12 4 -7 -4 -2 -19 11 -14 12 -30 20 -35 17 -6 -3 -13 0 -16 6
-5 11 -7 11 -12 0 -3 -6 -11 -9 -17 -5 -14 9 -147 11 -147 2 0 -3 -10 -6 -22
-6 -32 0 -59 -13 -51 -26 3 -5 2 -8 -3 -5 -5 4 -22 0 -39 -8 -16 -8 -21 -12
-10 -9 15 5 17 3 9 -5 -6 -6 -20 -12 -31 -13 -13 0 -19 -6 -16 -14 3 -7 0 -13
-6 -13 -6 0 -11 -7 -11 -15 0 -7 -7 -18 -16 -23 -9 -5 -15 -12 -15 -15 1 -4
-6 -23 -14 -43 -8 -20 -12 -40 -9 -45 3 -5 1 -9 -5 -9 -6 0 -8 -7 -5 -15 4 -8
1 -15 -5 -15 -7 0 -8 -8 -1 -25 5 -13 6 -27 1 -29 -4 -3 -7 -112 -7 -242 1
-181 4 -238 14 -242 6 -2 9 -8 6 -14 -5 -7 2 -9 19 -6 15 3 24 2 22 -2 -3 -4
35 -6 83 -5 48 2 184 6 302 9 318 10 388 14 411 27 17 9 20 8 13 -3 -6 -11 -5
-11 9 1 9 7 17 10 17 7 0 -4 11 4 23 18 13 14 26 24 28 21 9 -9 1 111 -9 136
-6 15 -8 30 -5 33 4 3 0 6 -7 6 -7 0 -11 3 -8 6 3 3 0 31 -7 62 -7 31 -13 84
-14 117 -1 33 -3 78 -6 100 -5 45 -14 178 -20 270 -4 85 -16 146 -26 139 -5
-3 -9 -1 -9 5 0 11 -39 10 -46 -1z"/>
<path d="M9945 4210 c-3 -5 -1 -10 4 -10 6 0 11 5 11 10 0 6 -2 10 -4 10 -3 0
-8 -4 -11 -10z"/>
</g>
</svg>
